<mxfile host="Electron" agent="Mozilla/5.0 (Windows NT 10.0; Win64; x64) AppleWebKit/537.36 (KHTML, like Gecko) draw.io/26.0.16 Chrome/132.0.6834.196 Electron/34.2.0 Safari/537.36" version="26.0.16" pages="4">
  <diagram name="AccReport" id="2YBvvXClWsGukQMizWep">
    <mxGraphModel dx="1430" dy="858" grid="1" gridSize="10" guides="1" tooltips="1" connect="1" arrows="1" fold="1" page="1" pageScale="1" pageWidth="850" pageHeight="1100" math="0" shadow="0">
      <root>
        <mxCell id="0" />
        <mxCell id="1" parent="0" />
        <mxCell id="aM9ryv3xv72pqoxQDRHE-5" value="&lt;font style=&quot;font-size: 10px;&quot;&gt;jEProcessor: JournalEntryProcessor&lt;/font&gt;" style="shape=umlLifeline;perimeter=lifelinePerimeter;whiteSpace=wrap;html=1;container=0;dropTarget=0;collapsible=0;recursiveResize=0;outlineConnect=0;portConstraint=eastwest;newEdgeStyle={&quot;edgeStyle&quot;:&quot;elbowEdgeStyle&quot;,&quot;elbow&quot;:&quot;vertical&quot;,&quot;curved&quot;:0,&quot;rounded&quot;:0};" parent="1" vertex="1">
          <mxGeometry x="217" y="40" width="105" height="790" as="geometry" />
        </mxCell>
        <mxCell id="7JdvmAQgOeWiS0CBE080-1" value="&lt;span style=&quot;font-size: 10px;&quot;&gt;dba: DatabaseAccess&lt;/span&gt;" style="shape=umlLifeline;perimeter=lifelinePerimeter;whiteSpace=wrap;html=1;container=0;dropTarget=0;collapsible=0;recursiveResize=0;outlineConnect=0;portConstraint=eastwest;newEdgeStyle={&quot;edgeStyle&quot;:&quot;elbowEdgeStyle&quot;,&quot;elbow&quot;:&quot;vertical&quot;,&quot;curved&quot;:0,&quot;rounded&quot;:0};" parent="1" vertex="1">
          <mxGeometry x="400" y="40" width="100" height="790" as="geometry" />
        </mxCell>
        <mxCell id="Y_J-Lyee2_NiAVIgYaf4-1" value="&lt;font style=&quot;font-size: 10px;&quot;&gt;db1: Database&lt;/font&gt;" style="shape=umlLifeline;perimeter=lifelinePerimeter;whiteSpace=wrap;html=1;container=0;dropTarget=0;collapsible=0;recursiveResize=0;outlineConnect=0;portConstraint=eastwest;newEdgeStyle={&quot;edgeStyle&quot;:&quot;elbowEdgeStyle&quot;,&quot;elbow&quot;:&quot;vertical&quot;,&quot;curved&quot;:0,&quot;rounded&quot;:0};" parent="1" vertex="1">
          <mxGeometry x="950" y="40" width="100" height="790" as="geometry" />
        </mxCell>
        <mxCell id="Y_J-Lyee2_NiAVIgYaf4-3" value="" style="endArrow=classic;html=1;rounded=0;entryX=-0.014;entryY=0.084;entryDx=0;entryDy=0;entryPerimeter=0;" parent="1" edge="1">
          <mxGeometry width="50" height="50" relative="1" as="geometry">
            <mxPoint x="89.83333333333326" y="121.36000000000001" as="sourcePoint" />
            <mxPoint x="264.8599999999999" y="121.36000000000001" as="targetPoint" />
          </mxGeometry>
        </mxCell>
        <mxCell id="Y_J-Lyee2_NiAVIgYaf4-5" value="" style="rounded=0;whiteSpace=wrap;html=1;" parent="1" vertex="1">
          <mxGeometry x="265" y="116" width="9.55" height="694" as="geometry" />
        </mxCell>
        <mxCell id="Y_J-Lyee2_NiAVIgYaf4-6" value="&lt;font&gt;generateReport(List&amp;lt;selections&amp;gt;)&lt;/font&gt;" style="text;html=1;align=center;verticalAlign=middle;whiteSpace=wrap;rounded=0;fontSize=10;" parent="1" vertex="1">
          <mxGeometry x="100" y="90" width="160" height="30" as="geometry" />
        </mxCell>
        <mxCell id="Y_J-Lyee2_NiAVIgYaf4-10" value="" style="rounded=0;whiteSpace=wrap;html=1;" parent="1" vertex="1">
          <mxGeometry x="445" y="130" width="10" height="100" as="geometry" />
        </mxCell>
        <mxCell id="Y_J-Lyee2_NiAVIgYaf4-11" value="" style="rounded=0;whiteSpace=wrap;html=1;" parent="1" vertex="1">
          <mxGeometry x="995" y="178" width="10" height="60" as="geometry" />
        </mxCell>
        <mxCell id="Y_J-Lyee2_NiAVIgYaf4-12" value="" style="endArrow=classic;html=1;rounded=0;entryX=0.008;entryY=0.333;entryDx=0;entryDy=0;entryPerimeter=0;spacing=2;" parent="1" edge="1">
          <mxGeometry width="50" height="50" relative="1" as="geometry">
            <mxPoint x="275" y="139" as="sourcePoint" />
            <mxPoint x="445.27999999999975" y="138.9899999999999" as="targetPoint" />
          </mxGeometry>
        </mxCell>
        <mxCell id="4HfzjmnXHgvhwNzIEfIn-5" value="&lt;font&gt;reqJe(List&amp;lt;selections&amp;gt;)&lt;/font&gt;" style="text;html=1;align=center;verticalAlign=middle;whiteSpace=wrap;rounded=0;fontSize=10;rotation=0;" parent="1" vertex="1">
          <mxGeometry x="284" y="113" width="160" height="30" as="geometry" />
        </mxCell>
        <mxCell id="4HfzjmnXHgvhwNzIEfIn-7" value="" style="endArrow=classic;html=1;rounded=0;entryX=-0.05;entryY=0.161;entryDx=0;entryDy=0;entryPerimeter=0;" parent="1" target="Y_J-Lyee2_NiAVIgYaf4-11" edge="1">
          <mxGeometry width="50" height="50" relative="1" as="geometry">
            <mxPoint x="455" y="188" as="sourcePoint" />
            <mxPoint x="990" y="188" as="targetPoint" />
          </mxGeometry>
        </mxCell>
        <mxCell id="4HfzjmnXHgvhwNzIEfIn-8" value="&lt;font size=&quot;1&quot;&gt;read(r&lt;/font&gt;&lt;span style=&quot;font-size: 10px;&quot;&gt;equest&lt;/span&gt;&lt;font size=&quot;1&quot;&gt;)&lt;/font&gt;" style="text;html=1;align=center;verticalAlign=middle;whiteSpace=wrap;rounded=0;" parent="1" vertex="1">
          <mxGeometry x="620" y="165" width="180" height="30" as="geometry" />
        </mxCell>
        <mxCell id="4HfzjmnXHgvhwNzIEfIn-9" value="" style="endArrow=classic;html=1;rounded=0;dashed=1;exitX=-0.016;exitY=0.572;exitDx=0;exitDy=0;exitPerimeter=0;" parent="1" source="Y_J-Lyee2_NiAVIgYaf4-11" edge="1">
          <mxGeometry width="50" height="50" relative="1" as="geometry">
            <mxPoint x="990" y="212" as="sourcePoint" />
            <mxPoint x="454.99741935483877" y="211.84000000000012" as="targetPoint" />
          </mxGeometry>
        </mxCell>
        <mxCell id="4HfzjmnXHgvhwNzIEfIn-11" value="&lt;font size=&quot;1&quot;&gt;entryData&lt;/font&gt;" style="text;html=1;align=center;verticalAlign=middle;whiteSpace=wrap;rounded=0;" parent="1" vertex="1">
          <mxGeometry x="520" y="188" width="160" height="30" as="geometry" />
        </mxCell>
        <mxCell id="4HfzjmnXHgvhwNzIEfIn-12" value="" style="endArrow=classic;html=1;rounded=0;dashed=1;exitX=-0.018;exitY=0.77;exitDx=0;exitDy=0;exitPerimeter=0;" parent="1" edge="1">
          <mxGeometry width="50" height="50" relative="1" as="geometry">
            <mxPoint x="444.81999999999994" y="225.29999999999995" as="sourcePoint" />
            <mxPoint x="275" y="226" as="targetPoint" />
          </mxGeometry>
        </mxCell>
        <mxCell id="4HfzjmnXHgvhwNzIEfIn-13" value="&lt;font style=&quot;font-size: 10px;&quot;&gt;entryData&lt;/font&gt;" style="text;html=1;align=center;verticalAlign=middle;whiteSpace=wrap;rounded=0;" parent="1" vertex="1">
          <mxGeometry x="283" y="214" width="165" height="5" as="geometry" />
        </mxCell>
        <mxCell id="4HfzjmnXHgvhwNzIEfIn-17" value="&lt;span style=&quot;font-size: 10px;&quot;&gt;je: JournalEntry&lt;/span&gt;" style="shape=umlLifeline;perimeter=lifelinePerimeter;whiteSpace=wrap;html=1;container=0;dropTarget=0;collapsible=0;recursiveResize=0;outlineConnect=0;portConstraint=eastwest;newEdgeStyle={&quot;edgeStyle&quot;:&quot;elbowEdgeStyle&quot;,&quot;elbow&quot;:&quot;vertical&quot;,&quot;curved&quot;:0,&quot;rounded&quot;:0};" parent="1" vertex="1">
          <mxGeometry x="730" y="338" width="100" height="492" as="geometry" />
        </mxCell>
        <mxCell id="4HfzjmnXHgvhwNzIEfIn-21" value="&lt;font style=&quot;font-size: 10px;&quot;&gt;createJE(entryData)&lt;/font&gt;" style="text;html=1;align=center;verticalAlign=middle;whiteSpace=wrap;rounded=0;" parent="1" vertex="1">
          <mxGeometry x="313" y="298.5" width="142" height="29" as="geometry" />
        </mxCell>
        <mxCell id="4HfzjmnXHgvhwNzIEfIn-22" value="" style="endArrow=classic;html=1;rounded=0;" parent="1" edge="1">
          <mxGeometry width="50" height="50" relative="1" as="geometry">
            <mxPoint x="274.8" y="325.4" as="sourcePoint" />
            <mxPoint x="630" y="325" as="targetPoint" />
          </mxGeometry>
        </mxCell>
        <mxCell id="4HfzjmnXHgvhwNzIEfIn-35" value="" style="endArrow=classic;html=1;rounded=0;dashed=1;exitX=-0.192;exitY=0.945;exitDx=0;exitDy=0;exitPerimeter=0;entryX=0.995;entryY=0.604;entryDx=0;entryDy=0;entryPerimeter=0;" parent="1" edge="1">
          <mxGeometry width="50" height="50" relative="1" as="geometry">
            <mxPoint x="633.9999999999999" y="528" as="sourcePoint" />
            <mxPoint x="274.50225" y="526.9359999999999" as="targetPoint" />
          </mxGeometry>
        </mxCell>
        <mxCell id="T0NjH91FfY6XBIfQoTq1-13" value="&lt;span style=&quot;font-size: 10px;&quot;&gt;je&lt;/span&gt;" style="edgeLabel;html=1;align=center;verticalAlign=middle;resizable=0;points=[];" parent="4HfzjmnXHgvhwNzIEfIn-35" vertex="1" connectable="0">
          <mxGeometry x="0.4498" y="1" relative="1" as="geometry">
            <mxPoint y="-13" as="offset" />
          </mxGeometry>
        </mxCell>
        <mxCell id="DI5lxMcedvrycpfFTZRz-1" value="&lt;font style=&quot;font-size: 11px;&quot;&gt;:LoanAccountant&lt;/font&gt;" style="shape=umlActor;verticalLabelPosition=bottom;verticalAlign=top;html=1;outlineConnect=0;" parent="1" vertex="1">
          <mxGeometry x="72" width="30" height="60" as="geometry" />
        </mxCell>
        <mxCell id="DI5lxMcedvrycpfFTZRz-3" value="" style="endArrow=none;dashed=1;html=1;rounded=0;" parent="1" source="vV9JiPAfguv6uYudDe1W-1" edge="1">
          <mxGeometry width="50" height="50" relative="1" as="geometry">
            <mxPoint x="89" y="840" as="sourcePoint" />
            <mxPoint x="89" y="80" as="targetPoint" />
          </mxGeometry>
        </mxCell>
        <mxCell id="2-z76B7x0IX5zYVlMh9r-3" value="&lt;font style=&quot;font-size: 10px;&quot;&gt;jEFactory: JournalEntryFactory&lt;/font&gt;" style="shape=umlLifeline;perimeter=lifelinePerimeter;whiteSpace=wrap;html=1;container=0;dropTarget=0;collapsible=0;recursiveResize=0;outlineConnect=0;portConstraint=eastwest;newEdgeStyle={&quot;edgeStyle&quot;:&quot;elbowEdgeStyle&quot;,&quot;elbow&quot;:&quot;vertical&quot;,&quot;curved&quot;:0,&quot;rounded&quot;:0};" parent="1" vertex="1">
          <mxGeometry x="589" y="40" width="100" height="790" as="geometry" />
        </mxCell>
        <mxCell id="alCJ6U0ftf2B5QYfBebz-1" value="" style="endArrow=classic;html=1;rounded=0;" parent="1" edge="1">
          <mxGeometry width="50" height="50" relative="1" as="geometry">
            <mxPoint x="274.5504347826086" y="261" as="sourcePoint" />
            <mxPoint x="274.5504347826086" y="281" as="targetPoint" />
            <Array as="points">
              <mxPoint x="324.9200000000001" y="261" />
              <mxPoint x="324.9200000000001" y="281" />
            </Array>
          </mxGeometry>
        </mxCell>
        <mxCell id="alCJ6U0ftf2B5QYfBebz-2" value="parseEntryData&amp;nbsp;&lt;div&gt;(entryData)&lt;/div&gt;" style="text;html=1;align=center;verticalAlign=middle;whiteSpace=wrap;rounded=0;fontSize=10;" parent="1" vertex="1">
          <mxGeometry x="295" y="247" width="150" height="30" as="geometry" />
        </mxCell>
        <mxCell id="3D2PGEMkoatx7oNm-oNc-1" value="loop" style="shape=umlFrame;whiteSpace=wrap;html=1;pointerEvents=0;" parent="1" vertex="1">
          <mxGeometry x="195" y="296.5" width="865" height="321.5" as="geometry" />
        </mxCell>
        <mxCell id="-N-zzBPkDAshglLH62nF-1" value="&lt;font style=&quot;font-size: 10px;&quot;&gt;[for each provider in&lt;/font&gt;&lt;div&gt;&lt;font style=&quot;font-size: 10px;&quot;&gt;parsed provResultsData]&lt;/font&gt;&lt;/div&gt;" style="text;html=1;align=center;verticalAlign=middle;whiteSpace=wrap;rounded=0;" parent="1" vertex="1">
          <mxGeometry x="274.54999999999995" y="595" width="165" height="5" as="geometry" />
        </mxCell>
        <mxCell id="0quDXVmhfJvjtk9r9NuN-3" value="" style="rounded=0;whiteSpace=wrap;html=1;" parent="1" vertex="1">
          <mxGeometry x="634" y="318" width="10" height="240" as="geometry" />
        </mxCell>
        <mxCell id="0quDXVmhfJvjtk9r9NuN-4" value="&lt;span style=&quot;font-size: 10px;&quot;&gt;jeLineItem: JournalEntryLineItem&lt;/span&gt;" style="shape=umlLifeline;perimeter=lifelinePerimeter;whiteSpace=wrap;html=1;container=0;dropTarget=0;collapsible=0;recursiveResize=0;outlineConnect=0;portConstraint=eastwest;newEdgeStyle={&quot;edgeStyle&quot;:&quot;elbowEdgeStyle&quot;,&quot;elbow&quot;:&quot;vertical&quot;,&quot;curved&quot;:0,&quot;rounded&quot;:0};" parent="1" vertex="1">
          <mxGeometry x="870" y="388" width="100" height="442" as="geometry" />
        </mxCell>
        <mxCell id="T0NjH91FfY6XBIfQoTq1-2" value="" style="endArrow=classic;html=1;rounded=0;exitX=1.186;exitY=0.165;exitDx=0;exitDy=0;exitPerimeter=0;" parent="1" source="0quDXVmhfJvjtk9r9NuN-3" edge="1">
          <mxGeometry width="50" height="50" relative="1" as="geometry">
            <mxPoint x="650" y="358" as="sourcePoint" />
            <mxPoint x="730" y="358" as="targetPoint" />
          </mxGeometry>
        </mxCell>
        <mxCell id="T0NjH91FfY6XBIfQoTq1-3" value="&lt;font style=&quot;font-size: 10px;&quot;&gt;&amp;lt;&amp;lt;Create&amp;gt;&amp;gt;&lt;/font&gt;" style="edgeLabel;html=1;align=center;verticalAlign=middle;resizable=0;points=[];" parent="T0NjH91FfY6XBIfQoTq1-2" vertex="1" connectable="0">
          <mxGeometry x="0.0257" relative="1" as="geometry">
            <mxPoint x="1" y="-10" as="offset" />
          </mxGeometry>
        </mxCell>
        <mxCell id="T0NjH91FfY6XBIfQoTq1-6" value="" style="endArrow=classic;html=1;rounded=0;" parent="1" edge="1">
          <mxGeometry width="50" height="50" relative="1" as="geometry">
            <mxPoint x="644" y="409" as="sourcePoint" />
            <mxPoint x="870" y="409" as="targetPoint" />
          </mxGeometry>
        </mxCell>
        <mxCell id="T0NjH91FfY6XBIfQoTq1-7" value="&lt;font style=&quot;font-size: 10px;&quot;&gt;&amp;lt;&amp;lt;Create&amp;gt;&amp;gt;&lt;/font&gt;" style="edgeLabel;html=1;align=center;verticalAlign=middle;resizable=0;points=[];" parent="1" vertex="1" connectable="0">
          <mxGeometry x="699.2179307355364" y="359.9951370962216" as="geometry">
            <mxPoint x="39" y="40" as="offset" />
          </mxGeometry>
        </mxCell>
        <mxCell id="T0NjH91FfY6XBIfQoTq1-8" value="" style="rounded=0;whiteSpace=wrap;html=1;" parent="1" vertex="1">
          <mxGeometry x="775" y="448" width="10" height="40" as="geometry" />
        </mxCell>
        <mxCell id="T0NjH91FfY6XBIfQoTq1-9" value="" style="endArrow=classic;html=1;rounded=0;exitX=1.008;exitY=0.129;exitDx=0;exitDy=0;exitPerimeter=0;entryX=-0.017;entryY=0.338;entryDx=0;entryDy=0;entryPerimeter=0;" parent="1" edge="1">
          <mxGeometry width="50" height="50" relative="1" as="geometry">
            <mxPoint x="644.17" y="468" as="sourcePoint" />
            <mxPoint x="774.9999999999999" y="467.2300000000001" as="targetPoint" />
          </mxGeometry>
        </mxCell>
        <mxCell id="T0NjH91FfY6XBIfQoTq1-10" value="&lt;font style=&quot;font-size: 10px;&quot;&gt;je.add(jeLineItem)&lt;/font&gt;" style="edgeLabel;html=1;align=center;verticalAlign=middle;resizable=0;points=[];" parent="T0NjH91FfY6XBIfQoTq1-9" vertex="1" connectable="0">
          <mxGeometry x="0.0257" relative="1" as="geometry">
            <mxPoint x="1" y="-10" as="offset" />
          </mxGeometry>
        </mxCell>
        <mxCell id="T0NjH91FfY6XBIfQoTq1-11" value="loop" style="shape=umlFrame;whiteSpace=wrap;html=1;pointerEvents=0;" parent="1" vertex="1">
          <mxGeometry x="560" y="437.25" width="410" height="71.5" as="geometry" />
        </mxCell>
        <mxCell id="T0NjH91FfY6XBIfQoTq1-12" value="&lt;font style=&quot;font-size: 10px;&quot;&gt;[for each jeLineItem]&lt;/font&gt;" style="text;html=1;align=center;verticalAlign=middle;whiteSpace=wrap;rounded=0;" parent="1" vertex="1">
          <mxGeometry x="620" y="495.5" width="165" height="5" as="geometry" />
        </mxCell>
        <mxCell id="T0NjH91FfY6XBIfQoTq1-15" value="" style="endArrow=classic;html=1;rounded=0;" parent="1" edge="1">
          <mxGeometry width="50" height="50" relative="1" as="geometry">
            <mxPoint x="274.5504347826086" y="558" as="sourcePoint" />
            <mxPoint x="274.5504347826086" y="578" as="targetPoint" />
            <Array as="points">
              <mxPoint x="324.9200000000001" y="558" />
              <mxPoint x="324.9200000000001" y="578" />
            </Array>
          </mxGeometry>
        </mxCell>
        <mxCell id="T0NjH91FfY6XBIfQoTq1-16" value="jeList.add(je)" style="text;html=1;align=center;verticalAlign=middle;whiteSpace=wrap;rounded=0;fontSize=10;" parent="1" vertex="1">
          <mxGeometry x="289" y="538" width="150" height="30" as="geometry" />
        </mxCell>
        <mxCell id="T0NjH91FfY6XBIfQoTq1-18" value="&lt;font style=&quot;font-size: 10px;&quot;&gt;repSysGateway: ReportSysGateway&amp;nbsp;&lt;/font&gt;" style="shape=umlLifeline;perimeter=lifelinePerimeter;whiteSpace=wrap;html=1;container=0;dropTarget=0;collapsible=0;recursiveResize=0;outlineConnect=0;portConstraint=eastwest;newEdgeStyle={&quot;edgeStyle&quot;:&quot;elbowEdgeStyle&quot;,&quot;elbow&quot;:&quot;vertical&quot;,&quot;curved&quot;:0,&quot;rounded&quot;:0};" parent="1" vertex="1">
          <mxGeometry x="1130" y="40" width="100" height="790" as="geometry" />
        </mxCell>
        <mxCell id="T0NjH91FfY6XBIfQoTq1-20" value="&lt;font style=&quot;font-size: 10px;&quot;&gt;&amp;lt;&amp;lt;external&amp;gt;&amp;gt;&lt;/font&gt;&lt;div&gt;&lt;font style=&quot;font-size: 10px;&quot;&gt;Reporting System&lt;/font&gt;&lt;/div&gt;" style="shape=umlLifeline;perimeter=lifelinePerimeter;whiteSpace=wrap;html=1;container=0;dropTarget=0;collapsible=0;recursiveResize=0;outlineConnect=0;portConstraint=eastwest;newEdgeStyle={&quot;edgeStyle&quot;:&quot;elbowEdgeStyle&quot;,&quot;elbow&quot;:&quot;vertical&quot;,&quot;curved&quot;:0,&quot;rounded&quot;:0};" parent="1" vertex="1">
          <mxGeometry x="1316" y="40" width="100" height="790" as="geometry" />
        </mxCell>
        <mxCell id="T0NjH91FfY6XBIfQoTq1-21" value="" style="rounded=0;whiteSpace=wrap;html=1;" parent="1" vertex="1">
          <mxGeometry x="1361" y="705" width="10" height="46" as="geometry" />
        </mxCell>
        <mxCell id="T0NjH91FfY6XBIfQoTq1-22" value="" style="endArrow=classic;html=1;rounded=0;entryX=0.4;entryY=0.132;entryDx=0;entryDy=0;entryPerimeter=0;" parent="1" target="T0NjH91FfY6XBIfQoTq1-19" edge="1">
          <mxGeometry width="50" height="50" relative="1" as="geometry">
            <mxPoint x="274.55" y="648" as="sourcePoint" />
            <mxPoint x="1170" y="648" as="targetPoint" />
          </mxGeometry>
        </mxCell>
        <mxCell id="T0NjH91FfY6XBIfQoTq1-23" value="generateAccReport(jeList)" style="edgeLabel;html=1;align=center;verticalAlign=middle;resizable=0;points=[];" parent="T0NjH91FfY6XBIfQoTq1-22" vertex="1" connectable="0">
          <mxGeometry x="-0.4793" y="2" relative="1" as="geometry">
            <mxPoint x="10" y="-7" as="offset" />
          </mxGeometry>
        </mxCell>
        <mxCell id="T0NjH91FfY6XBIfQoTq1-24" value="" style="endArrow=classic;html=1;rounded=0;entryX=-0.217;entryY=0.342;entryDx=0;entryDy=0;entryPerimeter=0;" parent="1" edge="1">
          <mxGeometry width="50" height="50" relative="1" as="geometry">
            <mxPoint x="1185" y="714" as="sourcePoint" />
            <mxPoint x="1362.8300000000004" y="713.52" as="targetPoint" />
          </mxGeometry>
        </mxCell>
        <mxCell id="T0NjH91FfY6XBIfQoTq1-25" value="generateAccReport(request)" style="edgeLabel;html=1;align=center;verticalAlign=middle;resizable=0;points=[];" parent="T0NjH91FfY6XBIfQoTq1-24" vertex="1" connectable="0">
          <mxGeometry x="-0.4793" y="2" relative="1" as="geometry">
            <mxPoint x="44" y="-9" as="offset" />
          </mxGeometry>
        </mxCell>
        <mxCell id="T0NjH91FfY6XBIfQoTq1-32" value="" style="endArrow=classic;html=1;rounded=0;dashed=1;exitX=-0.018;exitY=0.77;exitDx=0;exitDy=0;exitPerimeter=0;" parent="1" edge="1">
          <mxGeometry width="50" height="50" relative="1" as="geometry">
            <mxPoint x="1360" y="746" as="sourcePoint" />
            <mxPoint x="1185" y="747" as="targetPoint" />
          </mxGeometry>
        </mxCell>
        <mxCell id="T0NjH91FfY6XBIfQoTq1-33" value="formattedReport" style="edgeLabel;html=1;align=center;verticalAlign=middle;resizable=0;points=[];" parent="1" vertex="1" connectable="0">
          <mxGeometry x="1285.6610982729349" y="700.874044746173" as="geometry">
            <mxPoint x="-8" y="33" as="offset" />
          </mxGeometry>
        </mxCell>
        <mxCell id="T0NjH91FfY6XBIfQoTq1-34" value="" style="endArrow=classic;html=1;rounded=0;dashed=1;exitX=0.2;exitY=0.891;exitDx=0;exitDy=0;exitPerimeter=0;" parent="1" edge="1">
          <mxGeometry width="50" height="50" relative="1" as="geometry">
            <mxPoint x="1177" y="764.01" as="sourcePoint" />
            <mxPoint x="275" y="766" as="targetPoint" />
          </mxGeometry>
        </mxCell>
        <mxCell id="T0NjH91FfY6XBIfQoTq1-35" value="formattedReport" style="edgeLabel;html=1;align=center;verticalAlign=middle;resizable=0;points=[];" parent="T0NjH91FfY6XBIfQoTq1-34" vertex="1" connectable="0">
          <mxGeometry x="0.0809" y="1" relative="1" as="geometry">
            <mxPoint x="7" y="-12" as="offset" />
          </mxGeometry>
        </mxCell>
        <mxCell id="T0NjH91FfY6XBIfQoTq1-36" value="" style="endArrow=classic;html=1;rounded=0;dashed=1;exitX=-0.018;exitY=0.77;exitDx=0;exitDy=0;exitPerimeter=0;" parent="1" edge="1">
          <mxGeometry width="50" height="50" relative="1" as="geometry">
            <mxPoint x="263.99999999999994" y="796" as="sourcePoint" />
            <mxPoint x="94.18" y="796.7" as="targetPoint" />
          </mxGeometry>
        </mxCell>
        <mxCell id="T0NjH91FfY6XBIfQoTq1-37" value="formattedReport" style="edgeLabel;html=1;align=center;verticalAlign=middle;resizable=0;points=[];" parent="T0NjH91FfY6XBIfQoTq1-36" vertex="1" connectable="0">
          <mxGeometry x="0.0148" relative="1" as="geometry">
            <mxPoint x="2" y="-10" as="offset" />
          </mxGeometry>
        </mxCell>
        <mxCell id="T0NjH91FfY6XBIfQoTq1-44" value="" style="endArrow=none;dashed=1;html=1;rounded=0;entryX=0.4;entryY=0.912;entryDx=0;entryDy=0;entryPerimeter=0;" parent="1" edge="1">
          <mxGeometry width="50" height="50" relative="1" as="geometry">
            <mxPoint x="86" y="824" as="sourcePoint" />
            <mxPoint x="86" y="736.7559999999999" as="targetPoint" />
          </mxGeometry>
        </mxCell>
        <mxCell id="vV9JiPAfguv6uYudDe1W-1" value="" style="rounded=0;whiteSpace=wrap;html=1;" parent="1" vertex="1">
          <mxGeometry x="82" y="109.5" width="10" height="700.5" as="geometry" />
        </mxCell>
        <mxCell id="jA6EVewcoCZ88sW2UaSm-3" value="" style="endArrow=classic;html=1;rounded=0;" parent="1" edge="1">
          <mxGeometry width="50" height="50" relative="1" as="geometry">
            <mxPoint x="455.0004347826086" y="149" as="sourcePoint" />
            <mxPoint x="455.0004347826086" y="169" as="targetPoint" />
            <Array as="points">
              <mxPoint x="505.37000000000006" y="149" />
              <mxPoint x="505.37000000000006" y="169" />
            </Array>
          </mxGeometry>
        </mxCell>
        <mxCell id="jA6EVewcoCZ88sW2UaSm-4" value="frmtEntryReq&lt;div&gt;(List&amp;lt;selections&amp;gt;)&lt;/div&gt;" style="text;html=1;align=center;verticalAlign=middle;whiteSpace=wrap;rounded=0;fontSize=10;" parent="1" vertex="1">
          <mxGeometry x="479" y="131" width="150" height="30" as="geometry" />
        </mxCell>
        <mxCell id="T0NjH91FfY6XBIfQoTq1-19" value="" style="rounded=0;whiteSpace=wrap;html=1;" parent="1" vertex="1">
          <mxGeometry x="1175" y="628" width="10" height="152" as="geometry" />
        </mxCell>
        <mxCell id="rKIpHXUxj4k-GyNmGmIA-1" value="" style="endArrow=classic;html=1;rounded=0;" parent="1" edge="1">
          <mxGeometry width="50" height="50" relative="1" as="geometry">
            <mxPoint x="1185.0004347826086" y="660" as="sourcePoint" />
            <mxPoint x="1185.0004347826086" y="680" as="targetPoint" />
            <Array as="points">
              <mxPoint x="1235.3700000000001" y="660" />
              <mxPoint x="1235.3700000000001" y="680" />
            </Array>
          </mxGeometry>
        </mxCell>
        <mxCell id="rKIpHXUxj4k-GyNmGmIA-2" value="formatAccReq(jeList)" style="text;html=1;align=center;verticalAlign=middle;whiteSpace=wrap;rounded=0;fontSize=11;" parent="1" vertex="1">
          <mxGeometry x="1200" y="637" width="150" height="30" as="geometry" />
        </mxCell>
      </root>
    </mxGraphModel>
  </diagram>
  <diagram name="Invoice" id="yeku_w1y3M1treZbfWmD">
    <mxGraphModel dx="1728" dy="1037" grid="1" gridSize="10" guides="1" tooltips="1" connect="1" arrows="1" fold="1" page="1" pageScale="1" pageWidth="850" pageHeight="1100" math="0" shadow="0">
      <root>
        <mxCell id="HVeM_bdj46Od6PvFMc16-0" />
        <mxCell id="HVeM_bdj46Od6PvFMc16-1" parent="HVeM_bdj46Od6PvFMc16-0" />
        <mxCell id="HVeM_bdj46Od6PvFMc16-2" value="&lt;font style=&quot;font-size: 10px;&quot;&gt;invProcessor: InvoiceProcessor&lt;/font&gt;" style="shape=umlLifeline;perimeter=lifelinePerimeter;whiteSpace=wrap;html=1;container=0;dropTarget=0;collapsible=0;recursiveResize=0;outlineConnect=0;portConstraint=eastwest;newEdgeStyle={&quot;edgeStyle&quot;:&quot;elbowEdgeStyle&quot;,&quot;elbow&quot;:&quot;vertical&quot;,&quot;curved&quot;:0,&quot;rounded&quot;:0};" parent="HVeM_bdj46Od6PvFMc16-1" vertex="1">
          <mxGeometry x="220" y="40" width="100" height="940" as="geometry" />
        </mxCell>
        <mxCell id="HVeM_bdj46Od6PvFMc16-3" value="&lt;span style=&quot;font-size: 10px;&quot;&gt;dba: DatabaseAccess&lt;/span&gt;" style="shape=umlLifeline;perimeter=lifelinePerimeter;whiteSpace=wrap;html=1;container=0;dropTarget=0;collapsible=0;recursiveResize=0;outlineConnect=0;portConstraint=eastwest;newEdgeStyle={&quot;edgeStyle&quot;:&quot;elbowEdgeStyle&quot;,&quot;elbow&quot;:&quot;vertical&quot;,&quot;curved&quot;:0,&quot;rounded&quot;:0};" parent="HVeM_bdj46Od6PvFMc16-1" vertex="1">
          <mxGeometry x="400" y="40" width="100" height="940" as="geometry" />
        </mxCell>
        <mxCell id="HVeM_bdj46Od6PvFMc16-4" value="&lt;font style=&quot;font-size: 10px;&quot;&gt;db1: Database&lt;/font&gt;" style="shape=umlLifeline;perimeter=lifelinePerimeter;whiteSpace=wrap;html=1;container=0;dropTarget=0;collapsible=0;recursiveResize=0;outlineConnect=0;portConstraint=eastwest;newEdgeStyle={&quot;edgeStyle&quot;:&quot;elbowEdgeStyle&quot;,&quot;elbow&quot;:&quot;vertical&quot;,&quot;curved&quot;:0,&quot;rounded&quot;:0};" parent="HVeM_bdj46Od6PvFMc16-1" vertex="1">
          <mxGeometry x="817" y="40" width="100" height="940" as="geometry" />
        </mxCell>
        <mxCell id="HVeM_bdj46Od6PvFMc16-5" value="" style="endArrow=classic;html=1;rounded=0;entryX=-0.014;entryY=0.084;entryDx=0;entryDy=0;entryPerimeter=0;" parent="HVeM_bdj46Od6PvFMc16-1" edge="1">
          <mxGeometry width="50" height="50" relative="1" as="geometry">
            <mxPoint x="89.83333333333326" y="121.36000000000001" as="sourcePoint" />
            <mxPoint x="264.8599999999999" y="121.36000000000001" as="targetPoint" />
          </mxGeometry>
        </mxCell>
        <mxCell id="HVeM_bdj46Od6PvFMc16-7" value="&lt;font&gt;generateInvoice(list&amp;lt;selection&amp;gt;)&lt;/font&gt;" style="text;html=1;align=center;verticalAlign=middle;whiteSpace=wrap;rounded=0;fontSize=10;" parent="HVeM_bdj46Od6PvFMc16-1" vertex="1">
          <mxGeometry x="100" y="90" width="160" height="30" as="geometry" />
        </mxCell>
        <mxCell id="HVeM_bdj46Od6PvFMc16-8" value="" style="rounded=0;whiteSpace=wrap;html=1;" parent="HVeM_bdj46Od6PvFMc16-1" vertex="1">
          <mxGeometry x="445" y="130" width="10" height="100" as="geometry" />
        </mxCell>
        <mxCell id="HVeM_bdj46Od6PvFMc16-9" value="" style="rounded=0;whiteSpace=wrap;html=1;" parent="HVeM_bdj46Od6PvFMc16-1" vertex="1">
          <mxGeometry x="862" y="176" width="10" height="60" as="geometry" />
        </mxCell>
        <mxCell id="HVeM_bdj46Od6PvFMc16-10" value="" style="endArrow=classic;html=1;rounded=0;entryX=0.008;entryY=0.333;entryDx=0;entryDy=0;entryPerimeter=0;spacing=2;" parent="HVeM_bdj46Od6PvFMc16-1" edge="1">
          <mxGeometry width="50" height="50" relative="1" as="geometry">
            <mxPoint x="275" y="140" as="sourcePoint" />
            <mxPoint x="445.27999999999975" y="139.9899999999999" as="targetPoint" />
          </mxGeometry>
        </mxCell>
        <mxCell id="HVeM_bdj46Od6PvFMc16-11" value="&lt;font&gt;reqLoan(loanID)&lt;/font&gt;" style="text;html=1;align=center;verticalAlign=middle;whiteSpace=wrap;rounded=0;fontSize=10;rotation=0;" parent="HVeM_bdj46Od6PvFMc16-1" vertex="1">
          <mxGeometry x="284" y="113" width="160" height="30" as="geometry" />
        </mxCell>
        <mxCell id="HVeM_bdj46Od6PvFMc16-12" value="" style="endArrow=classic;html=1;rounded=0;entryX=-0.05;entryY=0.161;entryDx=0;entryDy=0;entryPerimeter=0;" parent="HVeM_bdj46Od6PvFMc16-1" target="HVeM_bdj46Od6PvFMc16-9" edge="1">
          <mxGeometry width="50" height="50" relative="1" as="geometry">
            <mxPoint x="455" y="186" as="sourcePoint" />
            <mxPoint x="990" y="186" as="targetPoint" />
          </mxGeometry>
        </mxCell>
        <mxCell id="HVeM_bdj46Od6PvFMc16-13" value="&lt;font size=&quot;1&quot;&gt;read(request)&lt;/font&gt;" style="text;html=1;align=center;verticalAlign=middle;whiteSpace=wrap;rounded=0;" parent="HVeM_bdj46Od6PvFMc16-1" vertex="1">
          <mxGeometry x="617" y="162" width="180" height="30" as="geometry" />
        </mxCell>
        <mxCell id="HVeM_bdj46Od6PvFMc16-14" value="" style="endArrow=classic;html=1;rounded=0;dashed=1;exitX=-0.016;exitY=0.572;exitDx=0;exitDy=0;exitPerimeter=0;" parent="HVeM_bdj46Od6PvFMc16-1" source="HVeM_bdj46Od6PvFMc16-9" edge="1">
          <mxGeometry width="50" height="50" relative="1" as="geometry">
            <mxPoint x="990" y="210" as="sourcePoint" />
            <mxPoint x="454.99741935483877" y="209.84000000000012" as="targetPoint" />
          </mxGeometry>
        </mxCell>
        <mxCell id="HVeM_bdj46Od6PvFMc16-15" value="&lt;font size=&quot;1&quot;&gt;loanData&lt;/font&gt;" style="text;html=1;align=center;verticalAlign=middle;whiteSpace=wrap;rounded=0;" parent="HVeM_bdj46Od6PvFMc16-1" vertex="1">
          <mxGeometry x="520" y="186" width="160" height="30" as="geometry" />
        </mxCell>
        <mxCell id="HVeM_bdj46Od6PvFMc16-16" value="" style="endArrow=classic;html=1;rounded=0;dashed=1;exitX=-0.018;exitY=0.77;exitDx=0;exitDy=0;exitPerimeter=0;" parent="HVeM_bdj46Od6PvFMc16-1" edge="1">
          <mxGeometry width="50" height="50" relative="1" as="geometry">
            <mxPoint x="444.81999999999994" y="223.29999999999995" as="sourcePoint" />
            <mxPoint x="275" y="224" as="targetPoint" />
          </mxGeometry>
        </mxCell>
        <mxCell id="HVeM_bdj46Od6PvFMc16-17" value="&lt;font style=&quot;font-size: 10px;&quot;&gt;loanData&lt;/font&gt;" style="text;html=1;align=center;verticalAlign=middle;whiteSpace=wrap;rounded=0;" parent="HVeM_bdj46Od6PvFMc16-1" vertex="1">
          <mxGeometry x="283" y="212" width="165" height="5" as="geometry" />
        </mxCell>
        <mxCell id="HVeM_bdj46Od6PvFMc16-18" value="&lt;span style=&quot;font-size: 10px;&quot;&gt;loan: Loan&lt;/span&gt;" style="shape=umlLifeline;perimeter=lifelinePerimeter;whiteSpace=wrap;html=1;container=0;dropTarget=0;collapsible=0;recursiveResize=0;outlineConnect=0;portConstraint=eastwest;newEdgeStyle={&quot;edgeStyle&quot;:&quot;elbowEdgeStyle&quot;,&quot;elbow&quot;:&quot;vertical&quot;,&quot;curved&quot;:0,&quot;rounded&quot;:0};" parent="HVeM_bdj46Od6PvFMc16-1" vertex="1">
          <mxGeometry x="730" y="326" width="100" height="654" as="geometry" />
        </mxCell>
        <mxCell id="HVeM_bdj46Od6PvFMc16-19" value="&lt;font style=&quot;font-size: 10px;&quot;&gt;createLoan(loan)&lt;/font&gt;" style="text;html=1;align=center;verticalAlign=middle;whiteSpace=wrap;rounded=0;" parent="HVeM_bdj46Od6PvFMc16-1" vertex="1">
          <mxGeometry x="313" y="296.5" width="142" height="29" as="geometry" />
        </mxCell>
        <mxCell id="HVeM_bdj46Od6PvFMc16-20" value="" style="endArrow=classic;html=1;rounded=0;" parent="HVeM_bdj46Od6PvFMc16-1" edge="1">
          <mxGeometry width="50" height="50" relative="1" as="geometry">
            <mxPoint x="274.8" y="323.4" as="sourcePoint" />
            <mxPoint x="630" y="323.4" as="targetPoint" />
          </mxGeometry>
        </mxCell>
        <mxCell id="HVeM_bdj46Od6PvFMc16-23" value="&lt;font style=&quot;font-size: 11px;&quot;&gt;:BillingAnalyst&lt;/font&gt;" style="shape=umlActor;verticalLabelPosition=bottom;verticalAlign=top;html=1;outlineConnect=0;" parent="HVeM_bdj46Od6PvFMc16-1" vertex="1">
          <mxGeometry x="72" width="30" height="60" as="geometry" />
        </mxCell>
        <mxCell id="HVeM_bdj46Od6PvFMc16-24" value="" style="endArrow=none;dashed=1;html=1;rounded=0;" parent="HVeM_bdj46Od6PvFMc16-1" source="HVeM_bdj46Od6PvFMc16-58" edge="1">
          <mxGeometry width="50" height="50" relative="1" as="geometry">
            <mxPoint x="89" y="840" as="sourcePoint" />
            <mxPoint x="89" y="80" as="targetPoint" />
          </mxGeometry>
        </mxCell>
        <mxCell id="HVeM_bdj46Od6PvFMc16-25" value="&lt;font style=&quot;font-size: 10px;&quot;&gt;loanFactory: LoanFactory&lt;/font&gt;" style="shape=umlLifeline;perimeter=lifelinePerimeter;whiteSpace=wrap;html=1;container=0;dropTarget=0;collapsible=0;recursiveResize=0;outlineConnect=0;portConstraint=eastwest;newEdgeStyle={&quot;edgeStyle&quot;:&quot;elbowEdgeStyle&quot;,&quot;elbow&quot;:&quot;vertical&quot;,&quot;curved&quot;:0,&quot;rounded&quot;:0};" parent="HVeM_bdj46Od6PvFMc16-1" vertex="1">
          <mxGeometry x="589" y="40" width="100" height="940" as="geometry" />
        </mxCell>
        <mxCell id="HVeM_bdj46Od6PvFMc16-26" value="" style="endArrow=classic;html=1;rounded=0;" parent="HVeM_bdj46Od6PvFMc16-1" edge="1">
          <mxGeometry width="50" height="50" relative="1" as="geometry">
            <mxPoint x="274.5504347826086" y="259" as="sourcePoint" />
            <mxPoint x="274.5504347826086" y="279" as="targetPoint" />
            <Array as="points">
              <mxPoint x="324.9200000000001" y="259" />
              <mxPoint x="324.9200000000001" y="279" />
            </Array>
          </mxGeometry>
        </mxCell>
        <mxCell id="HVeM_bdj46Od6PvFMc16-27" value="&lt;div&gt;parseLoanData(loanData)&lt;/div&gt;" style="text;html=1;align=center;verticalAlign=middle;whiteSpace=wrap;rounded=0;fontSize=10;" parent="HVeM_bdj46Od6PvFMc16-1" vertex="1">
          <mxGeometry x="298" y="235" width="150" height="30" as="geometry" />
        </mxCell>
        <mxCell id="HVeM_bdj46Od6PvFMc16-32" value="" style="endArrow=classic;html=1;rounded=0;exitX=0.6;exitY=0.667;exitDx=0;exitDy=0;exitPerimeter=0;" parent="HVeM_bdj46Od6PvFMc16-1" edge="1">
          <mxGeometry width="50" height="50" relative="1" as="geometry">
            <mxPoint x="640" y="340.02" as="sourcePoint" />
            <mxPoint x="730" y="340" as="targetPoint" />
          </mxGeometry>
        </mxCell>
        <mxCell id="HVeM_bdj46Od6PvFMc16-33" value="&lt;font style=&quot;font-size: 10px;&quot;&gt;&amp;lt;&amp;lt;Create&amp;gt;&amp;gt;&lt;/font&gt;" style="edgeLabel;html=1;align=center;verticalAlign=middle;resizable=0;points=[];" parent="HVeM_bdj46Od6PvFMc16-32" vertex="1" connectable="0">
          <mxGeometry x="0.0257" relative="1" as="geometry">
            <mxPoint x="1" y="-10" as="offset" />
          </mxGeometry>
        </mxCell>
        <mxCell id="HVeM_bdj46Od6PvFMc16-43" value="&lt;font style=&quot;font-size: 10px;&quot;&gt;emailSysGateway: EmailSystemGateway&lt;/font&gt;" style="shape=umlLifeline;perimeter=lifelinePerimeter;whiteSpace=wrap;html=1;container=0;dropTarget=0;collapsible=0;recursiveResize=0;outlineConnect=0;portConstraint=eastwest;newEdgeStyle={&quot;edgeStyle&quot;:&quot;elbowEdgeStyle&quot;,&quot;elbow&quot;:&quot;vertical&quot;,&quot;curved&quot;:0,&quot;rounded&quot;:0};" parent="HVeM_bdj46Od6PvFMc16-1" vertex="1">
          <mxGeometry x="1030" y="40" width="100" height="940" as="geometry" />
        </mxCell>
        <mxCell id="HVeM_bdj46Od6PvFMc16-45" value="&lt;font style=&quot;font-size: 10px;&quot;&gt;&amp;lt;&amp;lt;external&amp;gt;&amp;gt;&lt;/font&gt;&lt;div&gt;&lt;font style=&quot;font-size: 10px;&quot;&gt;Email System&lt;/font&gt;&lt;/div&gt;" style="shape=umlLifeline;perimeter=lifelinePerimeter;whiteSpace=wrap;html=1;container=0;dropTarget=0;collapsible=0;recursiveResize=0;outlineConnect=0;portConstraint=eastwest;newEdgeStyle={&quot;edgeStyle&quot;:&quot;elbowEdgeStyle&quot;,&quot;elbow&quot;:&quot;vertical&quot;,&quot;curved&quot;:0,&quot;rounded&quot;:0};" parent="HVeM_bdj46Od6PvFMc16-1" vertex="1">
          <mxGeometry x="1225" y="40" width="100" height="940" as="geometry" />
        </mxCell>
        <mxCell id="HVeM_bdj46Od6PvFMc16-57" value="" style="endArrow=none;dashed=1;html=1;rounded=0;entryX=0.4;entryY=0.912;entryDx=0;entryDy=0;entryPerimeter=0;" parent="HVeM_bdj46Od6PvFMc16-1" edge="1">
          <mxGeometry width="50" height="50" relative="1" as="geometry">
            <mxPoint x="86" y="980" as="sourcePoint" />
            <mxPoint x="86" y="856.836" as="targetPoint" />
          </mxGeometry>
        </mxCell>
        <mxCell id="29scR6K00vl_dqqGT1-3-2" value="" style="endArrow=classic;html=1;rounded=0;dashed=1;exitX=0.153;exitY=0.66;exitDx=0;exitDy=0;exitPerimeter=0;" parent="HVeM_bdj46Od6PvFMc16-1" edge="1">
          <mxGeometry width="50" height="50" relative="1" as="geometry">
            <mxPoint x="635.5300000000002" y="354" as="sourcePoint" />
            <mxPoint x="275" y="354" as="targetPoint" />
            <Array as="points">
              <mxPoint x="570" y="354" />
            </Array>
          </mxGeometry>
        </mxCell>
        <mxCell id="HVeM_bdj46Od6PvFMc16-30" value="" style="rounded=0;whiteSpace=wrap;html=1;" parent="HVeM_bdj46Od6PvFMc16-1" vertex="1">
          <mxGeometry x="634" y="316" width="10" height="50" as="geometry" />
        </mxCell>
        <mxCell id="29scR6K00vl_dqqGT1-3-3" value="&lt;span style=&quot;color: rgb(0, 0, 0); font-family: Helvetica; font-size: 10px; font-style: normal; font-variant-ligatures: normal; font-variant-caps: normal; font-weight: 400; letter-spacing: normal; orphans: 2; text-align: center; text-indent: 0px; text-transform: none; widows: 2; word-spacing: 0px; -webkit-text-stroke-width: 0px; white-space: normal; background-color: rgb(251, 251, 251); text-decoration-thickness: initial; text-decoration-style: initial; text-decoration-color: initial; float: none; display: inline !important;&quot;&gt;loan&lt;/span&gt;" style="text;whiteSpace=wrap;html=1;" parent="HVeM_bdj46Od6PvFMc16-1" vertex="1">
          <mxGeometry x="369" y="331" width="110" height="40" as="geometry" />
        </mxCell>
        <mxCell id="29scR6K00vl_dqqGT1-3-4" value="" style="endArrow=classic;html=1;rounded=0;" parent="HVeM_bdj46Od6PvFMc16-1" edge="1">
          <mxGeometry width="50" height="50" relative="1" as="geometry">
            <mxPoint x="274.5504347826086" y="413" as="sourcePoint" />
            <mxPoint x="274.5504347826086" y="433" as="targetPoint" />
            <Array as="points">
              <mxPoint x="324.9200000000001" y="413" />
              <mxPoint x="324.9200000000001" y="433" />
            </Array>
          </mxGeometry>
        </mxCell>
        <mxCell id="29scR6K00vl_dqqGT1-3-5" value="&lt;div&gt;generateInvoice(loan, list&amp;lt;selection&amp;gt;)&lt;/div&gt;" style="text;html=1;align=center;verticalAlign=middle;whiteSpace=wrap;rounded=0;fontSize=10;" parent="HVeM_bdj46Od6PvFMc16-1" vertex="1">
          <mxGeometry x="301" y="396" width="150" height="30" as="geometry" />
        </mxCell>
        <mxCell id="jWEh5GQjMLSX0AOfF1vE-0" value="&lt;font style=&quot;font-size: 10px;&quot;&gt;[for each loan in&lt;/font&gt;&lt;div&gt;&lt;font style=&quot;font-size: 10px;&quot;&gt;parsed loanData]&lt;/font&gt;&lt;/div&gt;" style="text;html=1;align=center;verticalAlign=middle;whiteSpace=wrap;rounded=0;" parent="HVeM_bdj46Od6PvFMc16-1" vertex="1">
          <mxGeometry x="117.99999999999994" y="458" width="165" height="5" as="geometry" />
        </mxCell>
        <mxCell id="jWEh5GQjMLSX0AOfF1vE-2" value="" style="endArrow=classic;html=1;rounded=0;" parent="HVeM_bdj46Od6PvFMc16-1" edge="1">
          <mxGeometry width="50" height="50" relative="1" as="geometry">
            <mxPoint x="274.5504347826086" y="469" as="sourcePoint" />
            <mxPoint x="274.5504347826086" y="489" as="targetPoint" />
            <Array as="points">
              <mxPoint x="324.9200000000001" y="469" />
              <mxPoint x="324.9200000000001" y="489" />
            </Array>
          </mxGeometry>
        </mxCell>
        <mxCell id="jWEh5GQjMLSX0AOfF1vE-3" value="&lt;div&gt;invoiceList.add(invoice)&lt;/div&gt;" style="text;html=1;align=center;verticalAlign=middle;whiteSpace=wrap;rounded=0;fontSize=10;" parent="HVeM_bdj46Od6PvFMc16-1" vertex="1">
          <mxGeometry x="309" y="463" width="150" height="30" as="geometry" />
        </mxCell>
        <mxCell id="jWEh5GQjMLSX0AOfF1vE-4" value="" style="endArrow=classic;html=1;rounded=0;dashed=1;entryX=0.995;entryY=0.604;entryDx=0;entryDy=0;entryPerimeter=0;" parent="HVeM_bdj46Od6PvFMc16-1" edge="1">
          <mxGeometry width="50" height="50" relative="1" as="geometry">
            <mxPoint x="270" y="523" as="sourcePoint" />
            <mxPoint x="92" y="523" as="targetPoint" />
          </mxGeometry>
        </mxCell>
        <mxCell id="jWEh5GQjMLSX0AOfF1vE-5" value="&lt;span style=&quot;font-size: 10px;&quot;&gt;invoiceList&lt;/span&gt;" style="edgeLabel;html=1;align=center;verticalAlign=middle;resizable=0;points=[];" parent="jWEh5GQjMLSX0AOfF1vE-4" vertex="1" connectable="0">
          <mxGeometry x="0.4498" y="1" relative="1" as="geometry">
            <mxPoint x="49" y="-13" as="offset" />
          </mxGeometry>
        </mxCell>
        <mxCell id="HVeM_bdj46Od6PvFMc16-6" value="" style="rounded=0;whiteSpace=wrap;html=1;" parent="HVeM_bdj46Od6PvFMc16-1" vertex="1">
          <mxGeometry x="265" y="116" width="9.55" height="374" as="geometry" />
        </mxCell>
        <mxCell id="LMPwcMptPixy0398Ls8B-0" value="loop" style="shape=umlFrame;whiteSpace=wrap;html=1;pointerEvents=0;" parent="HVeM_bdj46Od6PvFMc16-1" vertex="1">
          <mxGeometry x="130" y="294.5" width="710" height="201.5" as="geometry" />
        </mxCell>
        <mxCell id="jWEh5GQjMLSX0AOfF1vE-6" value="finalizeInvoices(message)" style="text;html=1;align=center;verticalAlign=middle;whiteSpace=wrap;rounded=0;fontSize=10;" parent="HVeM_bdj46Od6PvFMc16-1" vertex="1">
          <mxGeometry x="100" y="556" width="160" height="30" as="geometry" />
        </mxCell>
        <mxCell id="jWEh5GQjMLSX0AOfF1vE-7" value="" style="endArrow=classic;html=1;rounded=0;entryX=-0.014;entryY=0.084;entryDx=0;entryDy=0;entryPerimeter=0;" parent="HVeM_bdj46Od6PvFMc16-1" edge="1">
          <mxGeometry width="50" height="50" relative="1" as="geometry">
            <mxPoint x="90.48333333333326" y="583" as="sourcePoint" />
            <mxPoint x="265.5099999999999" y="583" as="targetPoint" />
          </mxGeometry>
        </mxCell>
        <mxCell id="HVeM_bdj46Od6PvFMc16-58" value="" style="rounded=0;whiteSpace=wrap;html=1;" parent="HVeM_bdj46Od6PvFMc16-1" vertex="1">
          <mxGeometry x="82" y="109.5" width="10" height="860.5" as="geometry" />
        </mxCell>
        <mxCell id="jWEh5GQjMLSX0AOfF1vE-9" value="" style="endArrow=classic;html=1;rounded=0;" parent="HVeM_bdj46Od6PvFMc16-1" edge="1">
          <mxGeometry width="50" height="50" relative="1" as="geometry">
            <mxPoint x="270.98333333333323" y="602" as="sourcePoint" />
            <mxPoint x="1075.5" y="602" as="targetPoint" />
          </mxGeometry>
        </mxCell>
        <mxCell id="jWEh5GQjMLSX0AOfF1vE-8" value="" style="rounded=0;whiteSpace=wrap;html=1;" parent="HVeM_bdj46Od6PvFMc16-1" vertex="1">
          <mxGeometry x="265" y="572" width="9.55" height="388" as="geometry" />
        </mxCell>
        <mxCell id="jWEh5GQjMLSX0AOfF1vE-12" value="emailInvoices(invoiceList, list&amp;lt;selections&amp;gt;, message)" style="text;html=1;align=center;verticalAlign=middle;whiteSpace=wrap;rounded=0;fontSize=10;" parent="HVeM_bdj46Od6PvFMc16-1" vertex="1">
          <mxGeometry x="293" y="572" width="160" height="30" as="geometry" />
        </mxCell>
        <mxCell id="jWEh5GQjMLSX0AOfF1vE-13" value="" style="endArrow=classic;html=1;rounded=0;" parent="HVeM_bdj46Od6PvFMc16-1" edge="1">
          <mxGeometry width="50" height="50" relative="1" as="geometry">
            <mxPoint x="1084.7704347826086" y="623" as="sourcePoint" />
            <mxPoint x="1084.7704347826086" y="643" as="targetPoint" />
            <Array as="points">
              <mxPoint x="1135.14" y="623" />
              <mxPoint x="1135.14" y="643" />
            </Array>
          </mxGeometry>
        </mxCell>
        <mxCell id="jWEh5GQjMLSX0AOfF1vE-15" value="&lt;div&gt;formatInvMsg(invoiceList, list&amp;lt;selections&amp;gt;, message)&lt;/div&gt;" style="text;html=1;align=center;verticalAlign=middle;whiteSpace=wrap;rounded=0;fontSize=10;" parent="HVeM_bdj46Od6PvFMc16-1" vertex="1">
          <mxGeometry x="1075" y="593" width="150" height="30" as="geometry" />
        </mxCell>
        <mxCell id="jWEh5GQjMLSX0AOfF1vE-17" value="" style="endArrow=classic;html=1;rounded=0;entryX=0;entryY=0.25;entryDx=0;entryDy=0;spacing=2;" parent="HVeM_bdj46Od6PvFMc16-1" target="jWEh5GQjMLSX0AOfF1vE-19" edge="1">
          <mxGeometry width="50" height="50" relative="1" as="geometry">
            <mxPoint x="1084.77" y="668" as="sourcePoint" />
            <mxPoint x="1255.0499999999997" y="667.9899999999999" as="targetPoint" />
          </mxGeometry>
        </mxCell>
        <mxCell id="jWEh5GQjMLSX0AOfF1vE-18" value="transmitInvMsg(email)" style="text;html=1;align=center;verticalAlign=middle;whiteSpace=wrap;rounded=0;fontSize=10;rotation=0;" parent="HVeM_bdj46Od6PvFMc16-1" vertex="1">
          <mxGeometry x="1093.77" y="643" width="160" height="30" as="geometry" />
        </mxCell>
        <mxCell id="jWEh5GQjMLSX0AOfF1vE-20" value="" style="endArrow=classic;html=1;rounded=0;dashed=1;exitX=0.153;exitY=0.66;exitDx=0;exitDy=0;exitPerimeter=0;entryX=0.501;entryY=0.731;entryDx=0;entryDy=0;entryPerimeter=0;" parent="HVeM_bdj46Od6PvFMc16-1" edge="1">
          <mxGeometry width="50" height="50" relative="1" as="geometry">
            <mxPoint x="1274" y="697" as="sourcePoint" />
            <mxPoint x="1084.00455" y="696.96" as="targetPoint" />
            <Array as="points">
              <mxPoint x="1208" y="697" />
            </Array>
          </mxGeometry>
        </mxCell>
        <mxCell id="jWEh5GQjMLSX0AOfF1vE-21" value="&lt;font style=&quot;font-size: 10px;&quot;&gt;confirmation&lt;/font&gt;" style="edgeLabel;html=1;align=center;verticalAlign=middle;resizable=0;points=[];" parent="jWEh5GQjMLSX0AOfF1vE-20" vertex="1" connectable="0">
          <mxGeometry x="0.1188" relative="1" as="geometry">
            <mxPoint x="4" y="-10" as="offset" />
          </mxGeometry>
        </mxCell>
        <mxCell id="jWEh5GQjMLSX0AOfF1vE-19" value="" style="rounded=0;whiteSpace=wrap;html=1;" parent="HVeM_bdj46Od6PvFMc16-1" vertex="1">
          <mxGeometry x="1270" y="653" width="9.55" height="60" as="geometry" />
        </mxCell>
        <mxCell id="jWEh5GQjMLSX0AOfF1vE-22" value="" style="endArrow=classic;html=1;rounded=0;dashed=1;exitX=0.153;exitY=0.66;exitDx=0;exitDy=0;exitPerimeter=0;" parent="HVeM_bdj46Od6PvFMc16-1" edge="1">
          <mxGeometry width="50" height="50" relative="1" as="geometry">
            <mxPoint x="1080.22" y="713.04" as="sourcePoint" />
            <mxPoint x="274.92857142857133" y="713.0399999999997" as="targetPoint" />
            <Array as="points">
              <mxPoint x="1014.22" y="713.04" />
            </Array>
          </mxGeometry>
        </mxCell>
        <mxCell id="jWEh5GQjMLSX0AOfF1vE-23" value="&lt;font style=&quot;font-size: 10px;&quot;&gt;confirmation&lt;/font&gt;" style="edgeLabel;html=1;align=center;verticalAlign=middle;resizable=0;points=[];" parent="jWEh5GQjMLSX0AOfF1vE-22" vertex="1" connectable="0">
          <mxGeometry x="0.1188" relative="1" as="geometry">
            <mxPoint x="4" y="-10" as="offset" />
          </mxGeometry>
        </mxCell>
        <mxCell id="jWEh5GQjMLSX0AOfF1vE-10" value="" style="rounded=0;whiteSpace=wrap;html=1;" parent="HVeM_bdj46Od6PvFMc16-1" vertex="1">
          <mxGeometry x="1075.22" y="586" width="9.55" height="160" as="geometry" />
        </mxCell>
        <mxCell id="jWEh5GQjMLSX0AOfF1vE-24" value="" style="endArrow=classic;html=1;rounded=0;dashed=1;entryX=1;entryY=0.75;entryDx=0;entryDy=0;" parent="HVeM_bdj46Od6PvFMc16-1" edge="1">
          <mxGeometry width="50" height="50" relative="1" as="geometry">
            <mxPoint x="260" y="731" as="sourcePoint" />
            <mxPoint x="92" y="730.875" as="targetPoint" />
            <Array as="points" />
          </mxGeometry>
        </mxCell>
        <mxCell id="jWEh5GQjMLSX0AOfF1vE-25" value="&lt;font style=&quot;font-size: 10px;&quot;&gt;confirmation&lt;/font&gt;" style="edgeLabel;html=1;align=center;verticalAlign=middle;resizable=0;points=[];" parent="jWEh5GQjMLSX0AOfF1vE-24" vertex="1" connectable="0">
          <mxGeometry x="0.1188" relative="1" as="geometry">
            <mxPoint x="4" y="-10" as="offset" />
          </mxGeometry>
        </mxCell>
        <mxCell id="jWEh5GQjMLSX0AOfF1vE-26" value="" style="endArrow=classic;html=1;rounded=0;" parent="HVeM_bdj46Od6PvFMc16-1" edge="1">
          <mxGeometry width="50" height="50" relative="1" as="geometry">
            <mxPoint x="274.5504347826086" y="758" as="sourcePoint" />
            <mxPoint x="274.5504347826086" y="778" as="targetPoint" />
            <Array as="points">
              <mxPoint x="324.9200000000001" y="758" />
              <mxPoint x="324.9200000000001" y="778" />
            </Array>
          </mxGeometry>
        </mxCell>
        <mxCell id="jWEh5GQjMLSX0AOfF1vE-27" value="&lt;div&gt;loan.add(invoice, date)&lt;/div&gt;" style="text;html=1;align=center;verticalAlign=middle;whiteSpace=wrap;rounded=0;fontSize=10;" parent="HVeM_bdj46Od6PvFMc16-1" vertex="1">
          <mxGeometry x="295" y="733" width="150" height="30" as="geometry" />
        </mxCell>
        <mxCell id="jWEh5GQjMLSX0AOfF1vE-28" value="&lt;span style=&quot;font-size: 10px;&quot;&gt;inv: Invoice&lt;/span&gt;" style="shape=umlLifeline;perimeter=lifelinePerimeter;whiteSpace=wrap;html=1;container=0;dropTarget=0;collapsible=0;recursiveResize=0;outlineConnect=0;portConstraint=eastwest;newEdgeStyle={&quot;edgeStyle&quot;:&quot;elbowEdgeStyle&quot;,&quot;elbow&quot;:&quot;vertical&quot;,&quot;curved&quot;:0,&quot;rounded&quot;:0};" parent="HVeM_bdj46Od6PvFMc16-1" vertex="1">
          <mxGeometry x="489" y="426" width="100" height="554" as="geometry" />
        </mxCell>
        <mxCell id="jWEh5GQjMLSX0AOfF1vE-29" value="" style="endArrow=classic;html=1;rounded=0;exitX=0.6;exitY=0.667;exitDx=0;exitDy=0;exitPerimeter=0;" parent="HVeM_bdj46Od6PvFMc16-1" edge="1">
          <mxGeometry width="50" height="50" relative="1" as="geometry">
            <mxPoint x="275" y="451.5" as="sourcePoint" />
            <mxPoint x="489.55" y="451.5" as="targetPoint" />
          </mxGeometry>
        </mxCell>
        <mxCell id="jWEh5GQjMLSX0AOfF1vE-30" value="&lt;font style=&quot;font-size: 10px;&quot;&gt;&amp;lt;&amp;lt;Create&amp;gt;&amp;gt;&lt;/font&gt;" style="edgeLabel;html=1;align=center;verticalAlign=middle;resizable=0;points=[];" parent="jWEh5GQjMLSX0AOfF1vE-29" vertex="1" connectable="0">
          <mxGeometry x="0.0257" relative="1" as="geometry">
            <mxPoint x="1" y="-10" as="offset" />
          </mxGeometry>
        </mxCell>
        <mxCell id="jWEh5GQjMLSX0AOfF1vE-31" value="" style="rounded=0;whiteSpace=wrap;html=1;" parent="HVeM_bdj46Od6PvFMc16-1" vertex="1">
          <mxGeometry x="862" y="861" width="10" height="40" as="geometry" />
        </mxCell>
        <mxCell id="jWEh5GQjMLSX0AOfF1vE-34" value="" style="endArrow=classic;html=1;rounded=0;entryX=0.008;entryY=0.333;entryDx=0;entryDy=0;entryPerimeter=0;spacing=2;" parent="HVeM_bdj46Od6PvFMc16-1" edge="1">
          <mxGeometry width="50" height="50" relative="1" as="geometry">
            <mxPoint x="274.72" y="799" as="sourcePoint" />
            <mxPoint x="444.9999999999998" y="798.9899999999999" as="targetPoint" />
          </mxGeometry>
        </mxCell>
        <mxCell id="jWEh5GQjMLSX0AOfF1vE-35" value="updateLoan(loan)" style="text;html=1;align=center;verticalAlign=middle;whiteSpace=wrap;rounded=0;fontSize=10;rotation=0;" parent="HVeM_bdj46Od6PvFMc16-1" vertex="1">
          <mxGeometry x="283.72" y="773" width="160" height="30" as="geometry" />
        </mxCell>
        <mxCell id="jWEh5GQjMLSX0AOfF1vE-37" value="" style="endArrow=classic;html=1;rounded=0;entryX=-0.05;entryY=0.161;entryDx=0;entryDy=0;entryPerimeter=0;" parent="HVeM_bdj46Od6PvFMc16-1" edge="1">
          <mxGeometry width="50" height="50" relative="1" as="geometry">
            <mxPoint x="455" y="871" as="sourcePoint" />
            <mxPoint x="862" y="871" as="targetPoint" />
          </mxGeometry>
        </mxCell>
        <mxCell id="jWEh5GQjMLSX0AOfF1vE-38" value="&lt;font size=&quot;1&quot;&gt;update(request)&lt;/font&gt;" style="text;html=1;align=center;verticalAlign=middle;whiteSpace=wrap;rounded=0;" parent="HVeM_bdj46Od6PvFMc16-1" vertex="1">
          <mxGeometry x="610" y="846" width="180" height="30" as="geometry" />
        </mxCell>
        <mxCell id="jWEh5GQjMLSX0AOfF1vE-39" value="" style="endArrow=classic;html=1;rounded=0;dashed=1;exitX=-0.016;exitY=0.572;exitDx=0;exitDy=0;exitPerimeter=0;" parent="HVeM_bdj46Od6PvFMc16-1" edge="1">
          <mxGeometry width="50" height="50" relative="1" as="geometry">
            <mxPoint x="862" y="891.16" as="sourcePoint" />
            <mxPoint x="454.99741935483877" y="891.0000000000001" as="targetPoint" />
          </mxGeometry>
        </mxCell>
        <mxCell id="jWEh5GQjMLSX0AOfF1vE-40" value="&lt;font size=&quot;1&quot;&gt;confirmation&lt;/font&gt;" style="text;html=1;align=center;verticalAlign=middle;whiteSpace=wrap;rounded=0;" parent="HVeM_bdj46Od6PvFMc16-1" vertex="1">
          <mxGeometry x="610" y="868" width="180" height="30" as="geometry" />
        </mxCell>
        <mxCell id="jWEh5GQjMLSX0AOfF1vE-41" value="" style="endArrow=classic;html=1;rounded=0;dashed=1;" parent="HVeM_bdj46Od6PvFMc16-1" edge="1">
          <mxGeometry width="50" height="50" relative="1" as="geometry">
            <mxPoint x="449.5" y="906" as="sourcePoint" />
            <mxPoint x="272.99741935483877" y="906.0000000000001" as="targetPoint" />
          </mxGeometry>
        </mxCell>
        <mxCell id="jWEh5GQjMLSX0AOfF1vE-36" value="" style="rounded=0;whiteSpace=wrap;html=1;" parent="HVeM_bdj46Od6PvFMc16-1" vertex="1">
          <mxGeometry x="445" y="790" width="10" height="131" as="geometry" />
        </mxCell>
        <mxCell id="jWEh5GQjMLSX0AOfF1vE-43" value="confirmation" style="text;html=1;align=center;verticalAlign=middle;whiteSpace=wrap;rounded=0;fontSize=10;rotation=0;" parent="HVeM_bdj46Od6PvFMc16-1" vertex="1">
          <mxGeometry x="285.5" y="882" width="160" height="30" as="geometry" />
        </mxCell>
        <mxCell id="jWEh5GQjMLSX0AOfF1vE-45" value="loop" style="shape=umlFrame;whiteSpace=wrap;html=1;pointerEvents=0;" parent="HVeM_bdj46Od6PvFMc16-1" vertex="1">
          <mxGeometry x="140" y="737" width="790" height="213" as="geometry" />
        </mxCell>
        <mxCell id="jWEh5GQjMLSX0AOfF1vE-46" value="&lt;span style=&quot;font-size: 10px;&quot;&gt;[for each loan in loans]&lt;/span&gt;" style="text;html=1;align=center;verticalAlign=middle;whiteSpace=wrap;rounded=0;" parent="HVeM_bdj46Od6PvFMc16-1" vertex="1">
          <mxGeometry x="120.49999999999994" y="931" width="165" height="5" as="geometry" />
        </mxCell>
        <mxCell id="jWEh5GQjMLSX0AOfF1vE-47" value="" style="endArrow=classic;html=1;rounded=0;" parent="HVeM_bdj46Od6PvFMc16-1" edge="1">
          <mxGeometry width="50" height="50" relative="1" as="geometry">
            <mxPoint x="274.5504347826086" y="371" as="sourcePoint" />
            <mxPoint x="274.5504347826086" y="391" as="targetPoint" />
            <Array as="points">
              <mxPoint x="324.9200000000001" y="371" />
              <mxPoint x="324.9200000000001" y="391" />
            </Array>
          </mxGeometry>
        </mxCell>
        <mxCell id="jWEh5GQjMLSX0AOfF1vE-48" value="&lt;span style=&quot;color: rgb(0, 0, 0); font-family: Helvetica; font-size: 10px; font-style: normal; font-variant-ligatures: normal; font-variant-caps: normal; font-weight: 400; letter-spacing: normal; orphans: 2; text-align: center; text-indent: 0px; text-transform: none; widows: 2; word-spacing: 0px; -webkit-text-stroke-width: 0px; white-space: normal; background-color: rgb(251, 251, 251); text-decoration-thickness: initial; text-decoration-style: initial; text-decoration-color: initial; float: none; display: inline !important;&quot;&gt;loans.add(loan)&lt;/span&gt;" style="text;whiteSpace=wrap;html=1;" parent="HVeM_bdj46Od6PvFMc16-1" vertex="1">
          <mxGeometry x="339" y="366" width="110" height="40" as="geometry" />
        </mxCell>
        <mxCell id="fP9J-bxuVZfRzFOqsCll-0" value="" style="endArrow=classic;html=1;rounded=0;" parent="HVeM_bdj46Od6PvFMc16-1" edge="1">
          <mxGeometry width="50" height="50" relative="1" as="geometry">
            <mxPoint x="455.0004347826086" y="147" as="sourcePoint" />
            <mxPoint x="455.0004347826086" y="167" as="targetPoint" />
            <Array as="points">
              <mxPoint x="505.37000000000006" y="147" />
              <mxPoint x="505.37000000000006" y="167" />
            </Array>
          </mxGeometry>
        </mxCell>
        <mxCell id="3hPTvNXCGt5mYAa6maXT-0" value="frmtLoanReq(loanID)" style="text;html=1;align=center;verticalAlign=middle;whiteSpace=wrap;rounded=0;fontSize=10;" parent="HVeM_bdj46Od6PvFMc16-1" vertex="1">
          <mxGeometry x="456" y="124" width="150" height="30" as="geometry" />
        </mxCell>
        <mxCell id="LsuFxNqjFAzU6L1RLI5f-0" value="" style="endArrow=classic;html=1;rounded=0;" parent="HVeM_bdj46Od6PvFMc16-1" edge="1">
          <mxGeometry width="50" height="50" relative="1" as="geometry">
            <mxPoint x="456.0004347826086" y="820" as="sourcePoint" />
            <mxPoint x="456.0004347826086" y="840" as="targetPoint" />
            <Array as="points">
              <mxPoint x="506.3700000000001" y="820" />
              <mxPoint x="506.3700000000001" y="840" />
            </Array>
          </mxGeometry>
        </mxCell>
        <mxCell id="LsuFxNqjFAzU6L1RLI5f-1" value="frmtLoanUpdate(loan)" style="text;html=1;align=center;verticalAlign=middle;whiteSpace=wrap;rounded=0;fontSize=10;" parent="HVeM_bdj46Od6PvFMc16-1" vertex="1">
          <mxGeometry x="439" y="790" width="150" height="30" as="geometry" />
        </mxCell>
      </root>
    </mxGraphModel>
  </diagram>
  <diagram id="ayAA-fDXgm3GjA3wV8Uu" name="Dashboard">
    <mxGraphModel dx="1185" dy="711" grid="1" gridSize="10" guides="1" tooltips="1" connect="1" arrows="1" fold="1" page="1" pageScale="1" pageWidth="1100" pageHeight="850" math="0" shadow="0">
      <root>
        <mxCell id="0" />
        <mxCell id="1" parent="0" />
        <mxCell id="-OxUSHMxEChOn_mXSNWX-1" value="&lt;font style=&quot;font-size: 10px;&quot;&gt;dashboardManager:&lt;/font&gt;&lt;div&gt;&lt;font style=&quot;font-size: 10px;&quot;&gt;DashboardManager&lt;/font&gt;&lt;/div&gt;" style="shape=umlLifeline;perimeter=lifelinePerimeter;whiteSpace=wrap;html=1;container=0;dropTarget=0;collapsible=0;recursiveResize=0;outlineConnect=0;portConstraint=eastwest;newEdgeStyle={&quot;edgeStyle&quot;:&quot;elbowEdgeStyle&quot;,&quot;elbow&quot;:&quot;vertical&quot;,&quot;curved&quot;:0,&quot;rounded&quot;:0};" parent="1" vertex="1">
          <mxGeometry x="220" y="40" width="100" height="1120" as="geometry" />
        </mxCell>
        <mxCell id="-OxUSHMxEChOn_mXSNWX-3" value="&lt;font style=&quot;font-size: 10px;&quot;&gt;db1: Database&lt;/font&gt;" style="shape=umlLifeline;perimeter=lifelinePerimeter;whiteSpace=wrap;html=1;container=0;dropTarget=0;collapsible=0;recursiveResize=0;outlineConnect=0;portConstraint=eastwest;newEdgeStyle={&quot;edgeStyle&quot;:&quot;elbowEdgeStyle&quot;,&quot;elbow&quot;:&quot;vertical&quot;,&quot;curved&quot;:0,&quot;rounded&quot;:0};" parent="1" vertex="1">
          <mxGeometry x="688" y="40" width="100" height="1120" as="geometry" />
        </mxCell>
        <mxCell id="-OxUSHMxEChOn_mXSNWX-4" value="" style="endArrow=classic;html=1;rounded=0;entryX=-0.014;entryY=0.084;entryDx=0;entryDy=0;entryPerimeter=0;" parent="1" edge="1">
          <mxGeometry width="50" height="50" relative="1" as="geometry">
            <mxPoint x="89.83333333333326" y="121.36000000000001" as="sourcePoint" />
            <mxPoint x="264.8599999999999" y="121.36000000000001" as="targetPoint" />
          </mxGeometry>
        </mxCell>
        <mxCell id="-OxUSHMxEChOn_mXSNWX-5" value="&lt;font&gt;updateDashboard(list&amp;lt;selections&amp;gt;)&lt;/font&gt;" style="text;html=1;align=center;verticalAlign=middle;whiteSpace=wrap;rounded=0;fontSize=10;" parent="1" vertex="1">
          <mxGeometry x="100" y="90" width="160" height="30" as="geometry" />
        </mxCell>
        <mxCell id="-OxUSHMxEChOn_mXSNWX-19" value="&lt;font style=&quot;font-size: 11px;&quot;&gt;:CreditOfficer&lt;/font&gt;" style="shape=umlActor;verticalLabelPosition=bottom;verticalAlign=top;html=1;outlineConnect=0;" parent="1" vertex="1">
          <mxGeometry x="72" width="30" height="60" as="geometry" />
        </mxCell>
        <mxCell id="-OxUSHMxEChOn_mXSNWX-20" value="" style="endArrow=none;dashed=1;html=1;rounded=0;" parent="1" source="-OxUSHMxEChOn_mXSNWX-43" edge="1">
          <mxGeometry width="50" height="50" relative="1" as="geometry">
            <mxPoint x="89" y="840" as="sourcePoint" />
            <mxPoint x="89" y="80" as="targetPoint" />
          </mxGeometry>
        </mxCell>
        <mxCell id="-OxUSHMxEChOn_mXSNWX-26" value="&lt;font style=&quot;font-size: 10px;&quot;&gt;emailSysGateway: EmailSystemGateway&lt;/font&gt;" style="shape=umlLifeline;perimeter=lifelinePerimeter;whiteSpace=wrap;html=1;container=0;dropTarget=0;collapsible=0;recursiveResize=0;outlineConnect=0;portConstraint=eastwest;newEdgeStyle={&quot;edgeStyle&quot;:&quot;elbowEdgeStyle&quot;,&quot;elbow&quot;:&quot;vertical&quot;,&quot;curved&quot;:0,&quot;rounded&quot;:0};" parent="1" vertex="1">
          <mxGeometry x="1449" y="40" width="100" height="1120" as="geometry" />
        </mxCell>
        <mxCell id="-OxUSHMxEChOn_mXSNWX-27" value="&lt;font style=&quot;font-size: 10px;&quot;&gt;&amp;lt;&amp;lt;external&amp;gt;&amp;gt;&lt;/font&gt;&lt;div&gt;&lt;font style=&quot;font-size: 10px;&quot;&gt;Email System&lt;/font&gt;&lt;/div&gt;" style="shape=umlLifeline;perimeter=lifelinePerimeter;whiteSpace=wrap;html=1;container=0;dropTarget=0;collapsible=0;recursiveResize=0;outlineConnect=0;portConstraint=eastwest;newEdgeStyle={&quot;edgeStyle&quot;:&quot;elbowEdgeStyle&quot;,&quot;elbow&quot;:&quot;vertical&quot;,&quot;curved&quot;:0,&quot;rounded&quot;:0};" parent="1" vertex="1">
          <mxGeometry x="1644" y="40" width="100" height="1120" as="geometry" />
        </mxCell>
        <mxCell id="KvbmiOffmop9GUXKUVBz-3" value="" style="endArrow=classic;html=1;rounded=0;" parent="1" edge="1">
          <mxGeometry width="50" height="50" relative="1" as="geometry">
            <mxPoint x="269.5533333333333" y="176" as="sourcePoint" />
            <mxPoint x="548.5" y="176" as="targetPoint" />
          </mxGeometry>
        </mxCell>
        <mxCell id="EyGI8TKfXdB354mamk7H-1" value="" style="endArrow=classic;html=1;rounded=0;" parent="1" edge="1">
          <mxGeometry width="50" height="50" relative="1" as="geometry">
            <mxPoint x="274.5504347826086" y="138" as="sourcePoint" />
            <mxPoint x="274.5504347826086" y="158" as="targetPoint" />
            <Array as="points">
              <mxPoint x="324.9200000000001" y="138" />
              <mxPoint x="324.9200000000001" y="158" />
            </Array>
          </mxGeometry>
        </mxCell>
        <mxCell id="EyGI8TKfXdB354mamk7H-2" value="&lt;font&gt;createDBRequest(list&amp;lt;selections&amp;gt;)&lt;/font&gt;" style="text;html=1;align=center;verticalAlign=middle;whiteSpace=wrap;rounded=0;fontSize=10;" parent="1" vertex="1">
          <mxGeometry x="288.23" y="116" width="160" height="30" as="geometry" />
        </mxCell>
        <mxCell id="EyGI8TKfXdB354mamk7H-3" value="reqDashboardData(request)" style="text;html=1;align=center;verticalAlign=middle;whiteSpace=wrap;rounded=0;fontSize=10;" parent="1" vertex="1">
          <mxGeometry x="330" y="154" width="160" height="30" as="geometry" />
        </mxCell>
        <mxCell id="EyGI8TKfXdB354mamk7H-4" value="" style="rounded=0;whiteSpace=wrap;html=1;" parent="1" vertex="1">
          <mxGeometry x="733.22" y="218" width="9.55" height="52" as="geometry" />
        </mxCell>
        <mxCell id="ipTMyYs7Kdz-5OObwZsT-2" value="" style="endArrow=classic;html=1;rounded=0;entryX=-0.014;entryY=0.084;entryDx=0;entryDy=0;entryPerimeter=0;" parent="1" edge="1">
          <mxGeometry width="50" height="50" relative="1" as="geometry">
            <mxPoint x="557.7833333333333" y="237" as="sourcePoint" />
            <mxPoint x="732.81" y="237" as="targetPoint" />
          </mxGeometry>
        </mxCell>
        <mxCell id="ipTMyYs7Kdz-5OObwZsT-3" value="read(frmtRequest)" style="text;html=1;align=center;verticalAlign=middle;whiteSpace=wrap;rounded=0;fontSize=10;" parent="1" vertex="1">
          <mxGeometry x="570" y="211" width="160" height="30" as="geometry" />
        </mxCell>
        <mxCell id="0YA78S3YFgG4ZjL6qvM3-1" value="" style="endArrow=classic;html=1;rounded=0;dashed=1;exitX=-0.018;exitY=0.77;exitDx=0;exitDy=0;exitPerimeter=0;entryX=1.232;entryY=0.238;entryDx=0;entryDy=0;entryPerimeter=0;" parent="1" edge="1">
          <mxGeometry width="50" height="50" relative="1" as="geometry">
            <mxPoint x="731.5999999999999" y="258.99999999999994" as="sourcePoint" />
            <mxPoint x="559.9956000000002" y="259.77600000000007" as="targetPoint" />
          </mxGeometry>
        </mxCell>
        <mxCell id="0YA78S3YFgG4ZjL6qvM3-2" value="data" style="text;html=1;align=center;verticalAlign=middle;whiteSpace=wrap;rounded=0;fontSize=10;" parent="1" vertex="1">
          <mxGeometry x="570" y="235" width="160" height="30" as="geometry" />
        </mxCell>
        <mxCell id="0YA78S3YFgG4ZjL6qvM3-3" value="" style="endArrow=classic;html=1;rounded=0;dashed=1;entryX=1.232;entryY=0.238;entryDx=0;entryDy=0;entryPerimeter=0;" parent="1" edge="1">
          <mxGeometry width="50" height="50" relative="1" as="geometry">
            <mxPoint x="553.5000000000002" y="265.77600000000007" as="sourcePoint" />
            <mxPoint x="274.5456000000002" y="265.77600000000007" as="targetPoint" />
          </mxGeometry>
        </mxCell>
        <mxCell id="0YA78S3YFgG4ZjL6qvM3-4" value="data" style="text;html=1;align=center;verticalAlign=middle;whiteSpace=wrap;rounded=0;fontSize=10;" parent="1" vertex="1">
          <mxGeometry x="340" y="242" width="160" height="30" as="geometry" />
        </mxCell>
        <mxCell id="0YA78S3YFgG4ZjL6qvM3-5" value="" style="endArrow=classic;html=1;rounded=0;" parent="1" edge="1">
          <mxGeometry width="50" height="50" relative="1" as="geometry">
            <mxPoint x="274.5504347826086" y="278" as="sourcePoint" />
            <mxPoint x="274.5504347826086" y="298" as="targetPoint" />
            <Array as="points">
              <mxPoint x="324.9200000000001" y="278" />
              <mxPoint x="324.9200000000001" y="298" />
            </Array>
          </mxGeometry>
        </mxCell>
        <mxCell id="0YA78S3YFgG4ZjL6qvM3-6" value="&lt;font&gt;parse(data)&lt;/font&gt;" style="text;html=1;align=center;verticalAlign=middle;whiteSpace=wrap;rounded=0;fontSize=10;" parent="1" vertex="1">
          <mxGeometry x="284.55" y="278" width="160" height="24" as="geometry" />
        </mxCell>
        <mxCell id="0YA78S3YFgG4ZjL6qvM3-7" value="&lt;span style=&quot;font-size: 10px;&quot;&gt;repSysGateway: ReportSysGateway&lt;/span&gt;" style="shape=umlLifeline;perimeter=lifelinePerimeter;whiteSpace=wrap;html=1;container=0;dropTarget=0;collapsible=0;recursiveResize=0;outlineConnect=0;portConstraint=eastwest;newEdgeStyle={&quot;edgeStyle&quot;:&quot;elbowEdgeStyle&quot;,&quot;elbow&quot;:&quot;vertical&quot;,&quot;curved&quot;:0,&quot;rounded&quot;:0};" parent="1" vertex="1">
          <mxGeometry x="1099" y="40" width="100" height="1120" as="geometry" />
        </mxCell>
        <mxCell id="3ldNMXg90DmplZzW83-_-1" value="&lt;font style=&quot;font-size: 10px;&quot;&gt;&amp;lt;&amp;lt;external&amp;gt;&amp;gt;&lt;/font&gt;&lt;div&gt;&lt;font style=&quot;font-size: 10px;&quot;&gt;Reporting System&lt;/font&gt;&lt;/div&gt;" style="shape=umlLifeline;perimeter=lifelinePerimeter;whiteSpace=wrap;html=1;container=0;dropTarget=0;collapsible=0;recursiveResize=0;outlineConnect=0;portConstraint=eastwest;newEdgeStyle={&quot;edgeStyle&quot;:&quot;elbowEdgeStyle&quot;,&quot;elbow&quot;:&quot;vertical&quot;,&quot;curved&quot;:0,&quot;rounded&quot;:0};" parent="1" vertex="1">
          <mxGeometry x="1285" y="40" width="100" height="1120" as="geometry" />
        </mxCell>
        <mxCell id="NqbvO4-Zf0qWioL1gXkI-1" value="" style="endArrow=classic;html=1;rounded=0;entryX=-0.068;entryY=0.081;entryDx=0;entryDy=0;entryPerimeter=0;" parent="1" target="poEWuiuesE_BHPIO0hry-1" edge="1">
          <mxGeometry width="50" height="50" relative="1" as="geometry">
            <mxPoint x="274.5533333333333" y="416" as="sourcePoint" />
            <mxPoint x="830" y="416" as="targetPoint" />
          </mxGeometry>
        </mxCell>
        <mxCell id="NqbvO4-Zf0qWioL1gXkI-2" value="&lt;font&gt;generateDashboard(parsedData)&lt;/font&gt;" style="text;html=1;align=center;verticalAlign=middle;whiteSpace=wrap;rounded=0;fontSize=10;" parent="1" vertex="1">
          <mxGeometry x="284.55" y="394" width="160" height="24" as="geometry" />
        </mxCell>
        <mxCell id="poEWuiuesE_BHPIO0hry-2" value="" style="endArrow=classic;html=1;rounded=0;" parent="1" edge="1">
          <mxGeometry width="50" height="50" relative="1" as="geometry">
            <mxPoint x="1153.7704347826086" y="430.5" as="sourcePoint" />
            <mxPoint x="1153.7704347826086" y="450.5" as="targetPoint" />
            <Array as="points">
              <mxPoint x="1204.14" y="430.5" />
              <mxPoint x="1204.14" y="450.5" />
            </Array>
          </mxGeometry>
        </mxCell>
        <mxCell id="poEWuiuesE_BHPIO0hry-3" value="&lt;font&gt;formatRprtRequest(parsedData)&lt;/font&gt;" style="text;html=1;align=center;verticalAlign=middle;whiteSpace=wrap;rounded=0;fontSize=10;" parent="1" vertex="1">
          <mxGeometry x="1169" y="406" width="160" height="24" as="geometry" />
        </mxCell>
        <mxCell id="kEFeQt6kDBIBl3VDvW8x-1" value="" style="rounded=0;whiteSpace=wrap;html=1;" parent="1" vertex="1">
          <mxGeometry x="1329.22" y="456" width="9.55" height="50" as="geometry" />
        </mxCell>
        <mxCell id="kEFeQt6kDBIBl3VDvW8x-2" value="" style="endArrow=classic;html=1;rounded=0;entryX=-0.014;entryY=0.084;entryDx=0;entryDy=0;entryPerimeter=0;" parent="1" edge="1">
          <mxGeometry width="50" height="50" relative="1" as="geometry">
            <mxPoint x="1153.9733333333334" y="470.65999999999997" as="sourcePoint" />
            <mxPoint x="1329" y="470.65999999999997" as="targetPoint" />
          </mxGeometry>
        </mxCell>
        <mxCell id="mNo8d7RIwbhAeJcHGvi3-1" value="&lt;font&gt;generateDashboardView(data)&lt;/font&gt;" style="text;html=1;align=center;verticalAlign=middle;whiteSpace=wrap;rounded=0;fontSize=10;" parent="1" vertex="1">
          <mxGeometry x="1168.22" y="450" width="160" height="24" as="geometry" />
        </mxCell>
        <mxCell id="mNo8d7RIwbhAeJcHGvi3-2" value="" style="endArrow=classic;html=1;rounded=0;dashed=1;exitX=-0.018;exitY=0.77;exitDx=0;exitDy=0;exitPerimeter=0;entryX=1.232;entryY=0.238;entryDx=0;entryDy=0;entryPerimeter=0;" parent="1" edge="1">
          <mxGeometry width="50" height="50" relative="1" as="geometry">
            <mxPoint x="1327.2199999999998" y="488.1099999999999" as="sourcePoint" />
            <mxPoint x="1155.6156" y="488.8860000000001" as="targetPoint" />
          </mxGeometry>
        </mxCell>
        <mxCell id="mNo8d7RIwbhAeJcHGvi3-4" value="view" style="text;html=1;align=center;verticalAlign=middle;whiteSpace=wrap;rounded=0;fontSize=10;" parent="1" vertex="1">
          <mxGeometry x="1169.22" y="469" width="160" height="24" as="geometry" />
        </mxCell>
        <mxCell id="mNo8d7RIwbhAeJcHGvi3-5" value="" style="endArrow=classic;html=1;rounded=0;dashed=1;" parent="1" edge="1">
          <mxGeometry width="50" height="50" relative="1" as="geometry">
            <mxPoint x="1148.77" y="496" as="sourcePoint" />
            <mxPoint x="274.77" y="496" as="targetPoint" />
          </mxGeometry>
        </mxCell>
        <mxCell id="poEWuiuesE_BHPIO0hry-1" value="" style="rounded=0;whiteSpace=wrap;html=1;" parent="1" vertex="1">
          <mxGeometry x="1144.22" y="406" width="9.55" height="94" as="geometry" />
        </mxCell>
        <mxCell id="mNo8d7RIwbhAeJcHGvi3-6" value="view" style="text;html=1;align=center;verticalAlign=middle;whiteSpace=wrap;rounded=0;fontSize=10;" parent="1" vertex="1">
          <mxGeometry x="557.78" y="475" width="160" height="24" as="geometry" />
        </mxCell>
        <mxCell id="mNo8d7RIwbhAeJcHGvi3-7" value="" style="endArrow=classic;html=1;rounded=0;dashed=1;exitX=-0.018;exitY=0.77;exitDx=0;exitDy=0;exitPerimeter=0;entryX=1.232;entryY=0.238;entryDx=0;entryDy=0;entryPerimeter=0;" parent="1" edge="1">
          <mxGeometry width="50" height="50" relative="1" as="geometry">
            <mxPoint x="263.5999999999998" y="514" as="sourcePoint" />
            <mxPoint x="91.9956000000002" y="514.7760000000001" as="targetPoint" />
          </mxGeometry>
        </mxCell>
        <mxCell id="mNo8d7RIwbhAeJcHGvi3-8" value="view" style="text;html=1;align=center;verticalAlign=middle;whiteSpace=wrap;rounded=0;fontSize=10;" parent="1" vertex="1">
          <mxGeometry x="100.00000000000006" y="494" width="160" height="24" as="geometry" />
        </mxCell>
        <mxCell id="mNo8d7RIwbhAeJcHGvi3-10" value="" style="endArrow=classic;html=1;rounded=0;entryX=-0.014;entryY=0.084;entryDx=0;entryDy=0;entryPerimeter=0;" parent="1" edge="1">
          <mxGeometry width="50" height="50" relative="1" as="geometry">
            <mxPoint x="90.48333333333326" y="537" as="sourcePoint" />
            <mxPoint x="265.5099999999999" y="537" as="targetPoint" />
          </mxGeometry>
        </mxCell>
        <mxCell id="mNo8d7RIwbhAeJcHGvi3-11" value="&lt;font&gt;lookupUser(name)&lt;/font&gt;" style="text;html=1;align=center;verticalAlign=middle;whiteSpace=wrap;rounded=0;fontSize=10;" parent="1" vertex="1">
          <mxGeometry x="102" y="511.75" width="160" height="30" as="geometry" />
        </mxCell>
        <mxCell id="mNo8d7RIwbhAeJcHGvi3-12" value="" style="endArrow=classic;html=1;rounded=0;" parent="1" edge="1">
          <mxGeometry width="50" height="50" relative="1" as="geometry">
            <mxPoint x="270" y="557" as="sourcePoint" />
            <mxPoint x="548.5" y="557" as="targetPoint" />
          </mxGeometry>
        </mxCell>
        <mxCell id="mNo8d7RIwbhAeJcHGvi3-13" value="reqUserID(name)" style="text;html=1;align=center;verticalAlign=middle;whiteSpace=wrap;rounded=0;fontSize=10;" parent="1" vertex="1">
          <mxGeometry x="317.05" y="533" width="160" height="30" as="geometry" />
        </mxCell>
        <mxCell id="mNo8d7RIwbhAeJcHGvi3-14" value="" style="endArrow=classic;html=1;rounded=0;" parent="1" edge="1">
          <mxGeometry width="50" height="50" relative="1" as="geometry">
            <mxPoint x="557.7804347826086" y="187" as="sourcePoint" />
            <mxPoint x="557.7804347826086" y="207" as="targetPoint" />
            <Array as="points">
              <mxPoint x="608.1500000000001" y="187" />
              <mxPoint x="608.1500000000001" y="207" />
            </Array>
          </mxGeometry>
        </mxCell>
        <mxCell id="mNo8d7RIwbhAeJcHGvi3-15" value="&lt;font&gt;formatDashboard&lt;/font&gt;&lt;div&gt;&lt;font&gt;Request(request)&lt;/font&gt;&lt;/div&gt;" style="text;html=1;align=center;verticalAlign=middle;whiteSpace=wrap;rounded=0;fontSize=10;" parent="1" vertex="1">
          <mxGeometry x="590" y="181" width="160" height="30" as="geometry" />
        </mxCell>
        <mxCell id="mNo8d7RIwbhAeJcHGvi3-17" value="" style="endArrow=classic;html=1;rounded=0;" parent="1" edge="1">
          <mxGeometry width="50" height="50" relative="1" as="geometry">
            <mxPoint x="557.7804347826086" y="570" as="sourcePoint" />
            <mxPoint x="557.7804347826086" y="590" as="targetPoint" />
            <Array as="points">
              <mxPoint x="608.1500000000001" y="570" />
              <mxPoint x="608.1500000000001" y="590" />
            </Array>
          </mxGeometry>
        </mxCell>
        <mxCell id="mNo8d7RIwbhAeJcHGvi3-18" value="&lt;font&gt;formatUser&lt;/font&gt;&lt;div&gt;&lt;font&gt;Request(request)&lt;/font&gt;&lt;/div&gt;" style="text;html=1;align=center;verticalAlign=middle;whiteSpace=wrap;rounded=0;fontSize=10;" parent="1" vertex="1">
          <mxGeometry x="582.77" y="563" width="160" height="30" as="geometry" />
        </mxCell>
        <mxCell id="mNo8d7RIwbhAeJcHGvi3-19" value="" style="endArrow=classic;html=1;rounded=0;entryX=-0.014;entryY=0.084;entryDx=0;entryDy=0;entryPerimeter=0;" parent="1" edge="1">
          <mxGeometry width="50" height="50" relative="1" as="geometry">
            <mxPoint x="558.7433333333333" y="616.3299999999999" as="sourcePoint" />
            <mxPoint x="733.77" y="616.3299999999999" as="targetPoint" />
          </mxGeometry>
        </mxCell>
        <mxCell id="mNo8d7RIwbhAeJcHGvi3-20" value="read(frmtRequest)" style="text;html=1;align=center;verticalAlign=middle;whiteSpace=wrap;rounded=0;fontSize=10;" parent="1" vertex="1">
          <mxGeometry x="570" y="592" width="160" height="30" as="geometry" />
        </mxCell>
        <mxCell id="mNo8d7RIwbhAeJcHGvi3-21" value="" style="rounded=0;whiteSpace=wrap;html=1;" parent="1" vertex="1">
          <mxGeometry x="733.22" y="607" width="9.55" height="43" as="geometry" />
        </mxCell>
        <mxCell id="mNo8d7RIwbhAeJcHGvi3-24" value="" style="endArrow=classic;html=1;rounded=0;dashed=1;exitX=0.007;exitY=0.579;exitDx=0;exitDy=0;exitPerimeter=0;entryX=1.232;entryY=0.238;entryDx=0;entryDy=0;entryPerimeter=0;" parent="1" edge="1">
          <mxGeometry width="50" height="50" relative="1" as="geometry">
            <mxPoint x="733.2868500000002" y="639.1610000000001" as="sourcePoint" />
            <mxPoint x="557.7756000000002" y="638.7760000000001" as="targetPoint" />
          </mxGeometry>
        </mxCell>
        <mxCell id="mNo8d7RIwbhAeJcHGvi3-25" value="data" style="text;html=1;align=center;verticalAlign=middle;whiteSpace=wrap;rounded=0;fontSize=10;" parent="1" vertex="1">
          <mxGeometry x="567.78" y="612" width="160" height="30" as="geometry" />
        </mxCell>
        <mxCell id="mNo8d7RIwbhAeJcHGvi3-26" value="" style="endArrow=classic;html=1;rounded=0;dashed=1;entryX=1.232;entryY=0.238;entryDx=0;entryDy=0;entryPerimeter=0;" parent="1" edge="1">
          <mxGeometry width="50" height="50" relative="1" as="geometry">
            <mxPoint x="553.5000000000002" y="648.7760000000003" as="sourcePoint" />
            <mxPoint x="274.71560000000017" y="648.7760000000001" as="targetPoint" />
          </mxGeometry>
        </mxCell>
        <mxCell id="mNo8d7RIwbhAeJcHGvi3-27" value="data" style="text;html=1;align=center;verticalAlign=middle;whiteSpace=wrap;rounded=0;fontSize=10;" parent="1" vertex="1">
          <mxGeometry x="319.99999999999994" y="620" width="160" height="30" as="geometry" />
        </mxCell>
        <mxCell id="mNo8d7RIwbhAeJcHGvi3-28" value="" style="endArrow=classic;html=1;rounded=0;dashed=1;exitX=0.007;exitY=0.579;exitDx=0;exitDy=0;exitPerimeter=0;entryX=1.232;entryY=0.238;entryDx=0;entryDy=0;entryPerimeter=0;" parent="1" edge="1">
          <mxGeometry width="50" height="50" relative="1" as="geometry">
            <mxPoint x="267.9968500000002" y="688.1310000000001" as="sourcePoint" />
            <mxPoint x="92.48560000000018" y="687.7460000000001" as="targetPoint" />
          </mxGeometry>
        </mxCell>
        <mxCell id="mNo8d7RIwbhAeJcHGvi3-29" value="map&amp;lt;userName,userID&amp;gt;" style="text;html=1;align=center;verticalAlign=middle;whiteSpace=wrap;rounded=0;fontSize=10;" parent="1" vertex="1">
          <mxGeometry x="99.99999999999997" y="660" width="160" height="30" as="geometry" />
        </mxCell>
        <mxCell id="qDzgjcIooDKqOtiUc7Ex-1" value="&lt;font style=&quot;font-size: 10px;&quot;&gt;loanFactory: LoanFactory&lt;/font&gt;" style="shape=umlLifeline;perimeter=lifelinePerimeter;whiteSpace=wrap;html=1;container=0;dropTarget=0;collapsible=0;recursiveResize=0;outlineConnect=0;portConstraint=eastwest;newEdgeStyle={&quot;edgeStyle&quot;:&quot;elbowEdgeStyle&quot;,&quot;elbow&quot;:&quot;vertical&quot;,&quot;curved&quot;:0,&quot;rounded&quot;:0};" parent="1" vertex="1">
          <mxGeometry x="863" y="40" width="100" height="1120" as="geometry" />
        </mxCell>
        <mxCell id="HGAO7azMabz6AxxO309E-2" value="" style="endArrow=classic;html=1;rounded=0;entryX=0.208;entryY=0.098;entryDx=0;entryDy=0;entryPerimeter=0;exitX=0.91;exitY=0.537;exitDx=0;exitDy=0;exitPerimeter=0;" parent="1" edge="1">
          <mxGeometry width="50" height="50" relative="1" as="geometry">
            <mxPoint x="273.69049999999993" y="347.538" as="sourcePoint" />
            <mxPoint x="908.28" y="345.94000000000005" as="targetPoint" />
          </mxGeometry>
        </mxCell>
        <mxCell id="HGAO7azMabz6AxxO309E-4" value="&lt;font&gt;createLoan(parsedData)&lt;/font&gt;" style="text;html=1;align=center;verticalAlign=middle;whiteSpace=wrap;rounded=0;fontSize=10;" parent="1" vertex="1">
          <mxGeometry x="320" y="325" width="160" height="24" as="geometry" />
        </mxCell>
        <mxCell id="QgbOMw2wXFYigzZEOkap-1" value="&lt;span style=&quot;font-size: 10px;&quot;&gt;loan: Loan&lt;/span&gt;" style="shape=umlLifeline;perimeter=lifelinePerimeter;whiteSpace=wrap;html=1;container=0;dropTarget=0;collapsible=0;recursiveResize=0;outlineConnect=0;portConstraint=eastwest;newEdgeStyle={&quot;edgeStyle&quot;:&quot;elbowEdgeStyle&quot;,&quot;elbow&quot;:&quot;vertical&quot;,&quot;curved&quot;:0,&quot;rounded&quot;:0};" parent="1" vertex="1">
          <mxGeometry x="988" y="352" width="100" height="808" as="geometry" />
        </mxCell>
        <mxCell id="QgbOMw2wXFYigzZEOkap-2" value="" style="endArrow=classic;html=1;rounded=0;exitX=0.288;exitY=1.007;exitDx=0;exitDy=0;exitPerimeter=0;" parent="1" edge="1">
          <mxGeometry width="50" height="50" relative="1" as="geometry">
            <mxPoint x="918.0799999999999" y="367.21000000000004" as="sourcePoint" />
            <mxPoint x="988" y="367" as="targetPoint" />
          </mxGeometry>
        </mxCell>
        <mxCell id="QgbOMw2wXFYigzZEOkap-5" value="" style="endArrow=classic;html=1;rounded=0;dashed=1;" parent="1" edge="1">
          <mxGeometry width="50" height="50" relative="1" as="geometry">
            <mxPoint x="912.5" y="376" as="sourcePoint" />
            <mxPoint x="274.6666666666665" y="376" as="targetPoint" />
          </mxGeometry>
        </mxCell>
        <mxCell id="LhZkSTmKx1GnOZh4ivqV-1" value="" style="rounded=0;whiteSpace=wrap;html=1;" parent="1" vertex="1">
          <mxGeometry x="908.22" y="337" width="9.55" height="43" as="geometry" />
        </mxCell>
        <mxCell id="QgbOMw2wXFYigzZEOkap-6" value="loan" style="text;html=1;align=center;verticalAlign=middle;whiteSpace=wrap;rounded=0;fontSize=10;" parent="1" vertex="1">
          <mxGeometry x="557.78" y="351" width="160" height="30" as="geometry" />
        </mxCell>
        <mxCell id="QgbOMw2wXFYigzZEOkap-10" value="&lt;span style=&quot;font-size: 10px;&quot;&gt;commentary: Commentary&lt;/span&gt;" style="shape=umlLifeline;perimeter=lifelinePerimeter;whiteSpace=wrap;html=1;container=0;dropTarget=0;collapsible=0;recursiveResize=0;outlineConnect=0;portConstraint=eastwest;newEdgeStyle={&quot;edgeStyle&quot;:&quot;elbowEdgeStyle&quot;,&quot;elbow&quot;:&quot;vertical&quot;,&quot;curved&quot;:0,&quot;rounded&quot;:0};" parent="1" vertex="1">
          <mxGeometry x="370" y="747.5" width="100" height="412.5" as="geometry" />
        </mxCell>
        <mxCell id="QgbOMw2wXFYigzZEOkap-11" value="&amp;lt;&amp;lt;create&amp;gt;&amp;gt;" style="text;html=1;align=center;verticalAlign=middle;whiteSpace=wrap;rounded=0;fontSize=10;" parent="1" vertex="1">
          <mxGeometry x="240" y="745" width="160" height="30" as="geometry" />
        </mxCell>
        <mxCell id="QgbOMw2wXFYigzZEOkap-12" value="" style="endArrow=classic;html=1;rounded=0;" parent="1" edge="1">
          <mxGeometry width="50" height="50" relative="1" as="geometry">
            <mxPoint x="274.55" y="769" as="sourcePoint" />
            <mxPoint x="370" y="769" as="targetPoint" />
          </mxGeometry>
        </mxCell>
        <mxCell id="QgbOMw2wXFYigzZEOkap-13" value="" style="endArrow=classic;html=1;rounded=0;entryX=-0.014;entryY=0.084;entryDx=0;entryDy=0;entryPerimeter=0;" parent="1" edge="1">
          <mxGeometry width="50" height="50" relative="1" as="geometry">
            <mxPoint x="92.48333333333326" y="739" as="sourcePoint" />
            <mxPoint x="267.5099999999999" y="739" as="targetPoint" />
          </mxGeometry>
        </mxCell>
        <mxCell id="QgbOMw2wXFYigzZEOkap-14" value="&lt;font&gt;saveCommentary(commentary)&lt;/font&gt;" style="text;html=1;align=center;verticalAlign=middle;whiteSpace=wrap;rounded=0;fontSize=10;" parent="1" vertex="1">
          <mxGeometry x="100" y="715" width="160" height="30" as="geometry" />
        </mxCell>
        <mxCell id="QgbOMw2wXFYigzZEOkap-15" value="" style="endArrow=classic;html=1;rounded=0;" parent="1" edge="1">
          <mxGeometry width="50" height="50" relative="1" as="geometry">
            <mxPoint x="274.7704347826086" y="795" as="sourcePoint" />
            <mxPoint x="274.7704347826086" y="815" as="targetPoint" />
            <Array as="points">
              <mxPoint x="325.1400000000001" y="795" />
              <mxPoint x="325.1400000000001" y="815" />
            </Array>
          </mxGeometry>
        </mxCell>
        <mxCell id="QgbOMw2wXFYigzZEOkap-16" value="&lt;font&gt;processCommmentary&lt;/font&gt;&lt;div&gt;&lt;font&gt;(commentary)&lt;/font&gt;&lt;/div&gt;" style="text;html=1;align=center;verticalAlign=middle;whiteSpace=wrap;rounded=0;fontSize=10;" parent="1" vertex="1">
          <mxGeometry x="340" y="790" width="90" height="24" as="geometry" />
        </mxCell>
        <mxCell id="QgbOMw2wXFYigzZEOkap-17" value="" style="endArrow=classic;html=1;rounded=0;" parent="1" edge="1">
          <mxGeometry width="50" height="50" relative="1" as="geometry">
            <mxPoint x="274.7704347826086" y="825" as="sourcePoint" />
            <mxPoint x="274.7704347826086" y="845" as="targetPoint" />
            <Array as="points">
              <mxPoint x="325.1400000000001" y="825" />
              <mxPoint x="325.1400000000001" y="845" />
            </Array>
          </mxGeometry>
        </mxCell>
        <mxCell id="QgbOMw2wXFYigzZEOkap-18" value="loan.addCommentary(&lt;div&gt;processedCommentary)&lt;/div&gt;" style="text;html=1;align=center;verticalAlign=middle;whiteSpace=wrap;rounded=0;fontSize=10;" parent="1" vertex="1">
          <mxGeometry x="340" y="823" width="90" height="24" as="geometry" />
        </mxCell>
        <mxCell id="QgbOMw2wXFYigzZEOkap-19" value="" style="endArrow=classic;html=1;rounded=0;" parent="1" edge="1">
          <mxGeometry width="50" height="50" relative="1" as="geometry">
            <mxPoint x="271.0033333333333" y="872" as="sourcePoint" />
            <mxPoint x="549.95" y="872" as="targetPoint" />
          </mxGeometry>
        </mxCell>
        <mxCell id="-OxUSHMxEChOn_mXSNWX-2" value="&lt;span style=&quot;font-size: 10px;&quot;&gt;dba: DatabaseAccess&lt;/span&gt;" style="shape=umlLifeline;perimeter=lifelinePerimeter;whiteSpace=wrap;html=1;container=0;dropTarget=0;collapsible=0;recursiveResize=0;outlineConnect=0;portConstraint=eastwest;newEdgeStyle={&quot;edgeStyle&quot;:&quot;elbowEdgeStyle&quot;,&quot;elbow&quot;:&quot;vertical&quot;,&quot;curved&quot;:0,&quot;rounded&quot;:0};" parent="1" vertex="1">
          <mxGeometry x="504" y="40" width="100" height="1120" as="geometry" />
        </mxCell>
        <mxCell id="KvbmiOffmop9GUXKUVBz-2" value="" style="rounded=0;whiteSpace=wrap;html=1;" parent="1" vertex="1">
          <mxGeometry x="548.23" y="160" width="9.55" height="140" as="geometry" />
        </mxCell>
        <mxCell id="QgbOMw2wXFYigzZEOkap-20" value="" style="rounded=0;whiteSpace=wrap;html=1;" parent="1" vertex="1">
          <mxGeometry x="549.22" y="862" width="9.55" height="120" as="geometry" />
        </mxCell>
        <mxCell id="QgbOMw2wXFYigzZEOkap-21" value="" style="rounded=0;whiteSpace=wrap;html=1;" parent="1" vertex="1">
          <mxGeometry x="733" y="930.5" width="9.55" height="41.5" as="geometry" />
        </mxCell>
        <mxCell id="P1-rK-m9uyiL1AXxcGIu-1" value="" style="endArrow=classic;html=1;rounded=0;" parent="1" edge="1">
          <mxGeometry width="50" height="50" relative="1" as="geometry">
            <mxPoint x="557.7804347826086" y="891.5" as="sourcePoint" />
            <mxPoint x="557.7804347826086" y="911.5" as="targetPoint" />
            <Array as="points">
              <mxPoint x="608.1500000000001" y="891.5" />
              <mxPoint x="608.1500000000001" y="911.5" />
            </Array>
          </mxGeometry>
        </mxCell>
        <mxCell id="Q0WKLWYYSHCAmcmlqP4X-1" value="updateLoan(loan)" style="text;html=1;align=center;verticalAlign=middle;whiteSpace=wrap;rounded=0;fontSize=10;rotation=0;" parent="1" vertex="1">
          <mxGeometry x="286" y="847" width="160" height="30" as="geometry" />
        </mxCell>
        <mxCell id="83nP2iEpQZeoMmlayoWK-1" value="frmtLoanUpdate(loan)" style="text;html=1;align=center;verticalAlign=middle;whiteSpace=wrap;rounded=0;fontSize=10;" parent="1" vertex="1">
          <mxGeometry x="590" y="887" width="150" height="30" as="geometry" />
        </mxCell>
        <mxCell id="Ifr5lutNJMii040pzzb8-1" value="" style="endArrow=classic;html=1;rounded=0;entryX=-0.014;entryY=0.084;entryDx=0;entryDy=0;entryPerimeter=0;" parent="1" edge="1">
          <mxGeometry width="50" height="50" relative="1" as="geometry">
            <mxPoint x="557.7833333333333" y="937" as="sourcePoint" />
            <mxPoint x="732.81" y="937" as="targetPoint" />
          </mxGeometry>
        </mxCell>
        <mxCell id="UqDCgqvhOfo_gpXwpILF-1" value="&lt;font size=&quot;1&quot;&gt;update(request)&lt;/font&gt;" style="text;html=1;align=center;verticalAlign=middle;whiteSpace=wrap;rounded=0;" parent="1" vertex="1">
          <mxGeometry x="560" y="912" width="180" height="30" as="geometry" />
        </mxCell>
        <mxCell id="0WS1a-msQ5H726QcLNp5-1" value="" style="endArrow=classic;html=1;rounded=0;dashed=1;" parent="1" edge="1">
          <mxGeometry width="50" height="50" relative="1" as="geometry">
            <mxPoint x="732.77" y="964" as="sourcePoint" />
            <mxPoint x="559" y="965" as="targetPoint" />
          </mxGeometry>
        </mxCell>
        <mxCell id="0WS1a-msQ5H726QcLNp5-2" value="&lt;font size=&quot;1&quot;&gt;confirmation&lt;/font&gt;" style="text;html=1;align=center;verticalAlign=middle;whiteSpace=wrap;rounded=0;" parent="1" vertex="1">
          <mxGeometry x="563" y="940" width="180" height="30" as="geometry" />
        </mxCell>
        <mxCell id="0WS1a-msQ5H726QcLNp5-3" value="" style="endArrow=classic;html=1;rounded=0;dashed=1;" parent="1" edge="1">
          <mxGeometry width="50" height="50" relative="1" as="geometry">
            <mxPoint x="549.64" y="975.22" as="sourcePoint" />
            <mxPoint x="269.70000000000005" y="975.2200000000003" as="targetPoint" />
          </mxGeometry>
        </mxCell>
        <mxCell id="0WS1a-msQ5H726QcLNp5-4" value="&lt;font size=&quot;1&quot;&gt;confirmation&lt;/font&gt;" style="text;html=1;align=center;verticalAlign=middle;whiteSpace=wrap;rounded=0;" parent="1" vertex="1">
          <mxGeometry x="267.55" y="950" width="180" height="30" as="geometry" />
        </mxCell>
        <mxCell id="o18kvr-33cnWM_BQkKME-1" value="" style="endArrow=classic;html=1;rounded=0;" parent="1" edge="1">
          <mxGeometry width="50" height="50" relative="1" as="geometry">
            <mxPoint x="274.82333333333327" y="1006" as="sourcePoint" />
            <mxPoint x="1493.5" y="1006" as="targetPoint" />
          </mxGeometry>
        </mxCell>
        <mxCell id="o18kvr-33cnWM_BQkKME-2" value="&lt;font size=&quot;1&quot;&gt;emailCommentary(link, commentary, list&amp;lt;userID&amp;gt;&lt;/font&gt;" style="text;html=1;align=center;verticalAlign=middle;whiteSpace=wrap;rounded=0;" parent="1" vertex="1">
          <mxGeometry x="284.55" y="983" width="225" height="30" as="geometry" />
        </mxCell>
        <mxCell id="lbv4vi5iwDMeP7SSJFBR-1" value="" style="endArrow=classic;html=1;rounded=0;" parent="1" edge="1">
          <mxGeometry width="50" height="50" relative="1" as="geometry">
            <mxPoint x="1503.7704347826086" y="1022" as="sourcePoint" />
            <mxPoint x="1503.7704347826086" y="1042" as="targetPoint" />
            <Array as="points">
              <mxPoint x="1554.14" y="1022" />
              <mxPoint x="1554.14" y="1042" />
            </Array>
          </mxGeometry>
        </mxCell>
        <mxCell id="lbv4vi5iwDMeP7SSJFBR-2" value="&lt;div&gt;formatCommMsg(list&amp;lt;userID), message)&lt;/div&gt;" style="text;html=1;align=center;verticalAlign=middle;whiteSpace=wrap;rounded=0;fontSize=10;" parent="1" vertex="1">
          <mxGeometry x="1550" y="1018" width="150" height="30" as="geometry" />
        </mxCell>
        <mxCell id="nZxLmki0yxrXY_glOFwU-1" value="" style="endArrow=classic;html=1;rounded=0;exitX=1.024;exitY=0.626;exitDx=0;exitDy=0;exitPerimeter=0;entryX=0;entryY=0.25;entryDx=0;entryDy=0;" parent="1" target="nZxLmki0yxrXY_glOFwU-2" edge="1">
          <mxGeometry width="50" height="50" relative="1" as="geometry">
            <mxPoint x="1503.9992000000002" y="1062.6399999999999" as="sourcePoint" />
            <mxPoint x="1689" y="1065" as="targetPoint" />
          </mxGeometry>
        </mxCell>
        <mxCell id="nZxLmki0yxrXY_glOFwU-2" value="" style="rounded=0;whiteSpace=wrap;html=1;" parent="1" vertex="1">
          <mxGeometry x="1689.22" y="1048" width="9.55" height="59" as="geometry" />
        </mxCell>
        <mxCell id="nZxLmki0yxrXY_glOFwU-3" value="&lt;div&gt;transmitCommEmail(email)&lt;/div&gt;" style="text;html=1;align=center;verticalAlign=middle;whiteSpace=wrap;rounded=0;fontSize=10;" parent="1" vertex="1">
          <mxGeometry x="1513.77" y="1040" width="150" height="30" as="geometry" />
        </mxCell>
        <mxCell id="nZxLmki0yxrXY_glOFwU-4" value="" style="endArrow=classic;html=1;rounded=0;dashed=1;exitX=1.004;exitY=0.833;exitDx=0;exitDy=0;exitPerimeter=0;entryX=1.111;entryY=0.858;entryDx=0;entryDy=0;entryPerimeter=0;" parent="1" source="nZxLmki0yxrXY_glOFwU-5" edge="1">
          <mxGeometry width="50" height="50" relative="1" as="geometry">
            <mxPoint x="1678.99" y="1094" as="sourcePoint" />
            <mxPoint x="1504.83005" y="1095.1199999999994" as="targetPoint" />
          </mxGeometry>
        </mxCell>
        <mxCell id="nZxLmki0yxrXY_glOFwU-5" value="&lt;font size=&quot;1&quot;&gt;confirmation&lt;/font&gt;" style="text;html=1;align=center;verticalAlign=middle;whiteSpace=wrap;rounded=0;" parent="1" vertex="1">
          <mxGeometry x="1509.22" y="1070" width="180" height="30" as="geometry" />
        </mxCell>
        <mxCell id="nZxLmki0yxrXY_glOFwU-7" value="" style="endArrow=classic;html=1;rounded=0;dashed=1;" parent="1" edge="1">
          <mxGeometry width="50" height="50" relative="1" as="geometry">
            <mxPoint x="1500.22" y="1107" as="sourcePoint" />
            <mxPoint x="275.32352941176487" y="1107" as="targetPoint" />
          </mxGeometry>
        </mxCell>
        <mxCell id="o18kvr-33cnWM_BQkKME-3" value="" style="rounded=0;whiteSpace=wrap;html=1;" parent="1" vertex="1">
          <mxGeometry x="1494.22" y="996" width="9.55" height="126" as="geometry" />
        </mxCell>
        <mxCell id="nZxLmki0yxrXY_glOFwU-8" value="&lt;font size=&quot;1&quot;&gt;confirmation&lt;/font&gt;" style="text;html=1;align=center;verticalAlign=middle;whiteSpace=wrap;rounded=0;" parent="1" vertex="1">
          <mxGeometry x="570" y="1082" width="180" height="30" as="geometry" />
        </mxCell>
        <mxCell id="nZxLmki0yxrXY_glOFwU-9" value="" style="endArrow=classic;html=1;rounded=0;entryX=-0.014;entryY=0.084;entryDx=0;entryDy=0;entryPerimeter=0;" parent="1" edge="1">
          <mxGeometry width="50" height="50" relative="1" as="geometry">
            <mxPoint x="92.00333333333326" y="709" as="sourcePoint" />
            <mxPoint x="267.02999999999986" y="709" as="targetPoint" />
          </mxGeometry>
        </mxCell>
        <mxCell id="nZxLmki0yxrXY_glOFwU-10" value="userTag(list&amp;lt;userID&amp;gt;)" style="text;html=1;align=center;verticalAlign=middle;whiteSpace=wrap;rounded=0;fontSize=10;" parent="1" vertex="1">
          <mxGeometry x="94.99999999999997" y="685" width="160" height="30" as="geometry" />
        </mxCell>
        <mxCell id="nZxLmki0yxrXY_glOFwU-11" value="" style="endArrow=none;dashed=1;html=1;rounded=0;" parent="1" edge="1">
          <mxGeometry width="50" height="50" relative="1" as="geometry">
            <mxPoint x="86" y="1149" as="sourcePoint" />
            <mxPoint x="86" y="1119" as="targetPoint" />
          </mxGeometry>
        </mxCell>
        <mxCell id="-OxUSHMxEChOn_mXSNWX-43" value="" style="rounded=0;whiteSpace=wrap;html=1;" parent="1" vertex="1">
          <mxGeometry x="82" y="109.5" width="10" height="1020.5" as="geometry" />
        </mxCell>
        <mxCell id="-OxUSHMxEChOn_mXSNWX-39" value="" style="rounded=0;whiteSpace=wrap;html=1;" parent="1" vertex="1">
          <mxGeometry x="265" y="116" width="9.55" height="1024" as="geometry" />
        </mxCell>
        <mxCell id="nZxLmki0yxrXY_glOFwU-14" value="&amp;lt;&amp;lt;create&amp;gt;" style="text;html=1;align=center;verticalAlign=middle;whiteSpace=wrap;rounded=0;fontSize=10;" parent="1" vertex="1">
          <mxGeometry x="870" y="343.5" width="160" height="30" as="geometry" />
        </mxCell>
        <mxCell id="mNo8d7RIwbhAeJcHGvi3-16" value="" style="rounded=0;whiteSpace=wrap;html=1;" parent="1" vertex="1">
          <mxGeometry x="548.23" y="541.75" width="9.55" height="138.25" as="geometry" />
        </mxCell>
        <mxCell id="nZxLmki0yxrXY_glOFwU-16" value="" style="endArrow=classic;html=1;rounded=0;dashed=1;" parent="1" edge="1">
          <mxGeometry width="50" height="50" relative="1" as="geometry">
            <mxPoint x="267.55" y="1122" as="sourcePoint" />
            <mxPoint x="90" y="1122" as="targetPoint" />
          </mxGeometry>
        </mxCell>
        <mxCell id="nZxLmki0yxrXY_glOFwU-17" value="&lt;font size=&quot;1&quot;&gt;confirmation&lt;/font&gt;" style="text;html=1;align=center;verticalAlign=middle;whiteSpace=wrap;rounded=0;" parent="1" vertex="1">
          <mxGeometry x="85.55000000000001" y="1098" width="180" height="30" as="geometry" />
        </mxCell>
        <mxCell id="pcqy6_chjLNkL1NPmDzi-1" value="" style="endArrow=classic;html=1;rounded=0;" parent="1" edge="1">
          <mxGeometry width="50" height="50" relative="1" as="geometry">
            <mxPoint x="274.5504347826086" y="660" as="sourcePoint" />
            <mxPoint x="274.5504347826086" y="680" as="targetPoint" />
            <Array as="points">
              <mxPoint x="324.9200000000001" y="660" />
              <mxPoint x="324.9200000000001" y="680" />
            </Array>
          </mxGeometry>
        </mxCell>
        <mxCell id="pcqy6_chjLNkL1NPmDzi-2" value="createMap(data)" style="text;html=1;align=center;verticalAlign=middle;whiteSpace=wrap;rounded=0;fontSize=10;" parent="1" vertex="1">
          <mxGeometry x="327" y="660" width="90" height="24" as="geometry" />
        </mxCell>
      </root>
    </mxGraphModel>
  </diagram>
  <diagram id="CrGWHJ7RG-2wK_KtTUim" name="Treasury">
    <mxGraphModel dx="1728" dy="1037" grid="1" gridSize="10" guides="1" tooltips="1" connect="1" arrows="1" fold="1" page="1" pageScale="1" pageWidth="1100" pageHeight="850" math="0" shadow="0">
      <root>
        <mxCell id="0" />
        <mxCell id="1" parent="0" />
        <mxCell id="Cu3xwsOy7MKMYsh_eWxb-1" value="&lt;font style=&quot;font-size: 10px;&quot;&gt;treasuryRptProcessor: TreasuryReportProcessor&lt;/font&gt;" style="shape=umlLifeline;perimeter=lifelinePerimeter;whiteSpace=wrap;html=1;container=0;dropTarget=0;collapsible=0;recursiveResize=0;outlineConnect=0;portConstraint=eastwest;newEdgeStyle={&quot;edgeStyle&quot;:&quot;elbowEdgeStyle&quot;,&quot;elbow&quot;:&quot;vertical&quot;,&quot;curved&quot;:0,&quot;rounded&quot;:0};" parent="1" vertex="1">
          <mxGeometry x="212" y="40" width="115" height="790" as="geometry" />
        </mxCell>
        <mxCell id="Cu3xwsOy7MKMYsh_eWxb-2" value="&lt;span style=&quot;font-size: 10px;&quot;&gt;dba: DatabaseAccess&lt;/span&gt;" style="shape=umlLifeline;perimeter=lifelinePerimeter;whiteSpace=wrap;html=1;container=0;dropTarget=0;collapsible=0;recursiveResize=0;outlineConnect=0;portConstraint=eastwest;newEdgeStyle={&quot;edgeStyle&quot;:&quot;elbowEdgeStyle&quot;,&quot;elbow&quot;:&quot;vertical&quot;,&quot;curved&quot;:0,&quot;rounded&quot;:0};" parent="1" vertex="1">
          <mxGeometry x="400" y="40" width="100" height="790" as="geometry" />
        </mxCell>
        <mxCell id="Cu3xwsOy7MKMYsh_eWxb-3" value="&lt;font style=&quot;font-size: 10px;&quot;&gt;db1: Database&lt;/font&gt;" style="shape=umlLifeline;perimeter=lifelinePerimeter;whiteSpace=wrap;html=1;container=0;dropTarget=0;collapsible=0;recursiveResize=0;outlineConnect=0;portConstraint=eastwest;newEdgeStyle={&quot;edgeStyle&quot;:&quot;elbowEdgeStyle&quot;,&quot;elbow&quot;:&quot;vertical&quot;,&quot;curved&quot;:0,&quot;rounded&quot;:0};" parent="1" vertex="1">
          <mxGeometry x="608" y="40" width="100" height="790" as="geometry" />
        </mxCell>
        <mxCell id="Cu3xwsOy7MKMYsh_eWxb-4" value="" style="endArrow=classic;html=1;rounded=0;entryX=-0.014;entryY=0.084;entryDx=0;entryDy=0;entryPerimeter=0;" parent="1" edge="1">
          <mxGeometry width="50" height="50" relative="1" as="geometry">
            <mxPoint x="89.83333333333326" y="121.36000000000001" as="sourcePoint" />
            <mxPoint x="264.8599999999999" y="121.36000000000001" as="targetPoint" />
          </mxGeometry>
        </mxCell>
        <mxCell id="Cu3xwsOy7MKMYsh_eWxb-6" value="generateActivity(List&amp;lt;Selections&amp;gt;)" style="text;html=1;align=center;verticalAlign=middle;whiteSpace=wrap;rounded=0;fontSize=10;" parent="1" vertex="1">
          <mxGeometry x="100" y="90" width="160" height="30" as="geometry" />
        </mxCell>
        <mxCell id="Cu3xwsOy7MKMYsh_eWxb-7" value="" style="rounded=0;whiteSpace=wrap;html=1;" parent="1" vertex="1">
          <mxGeometry x="445" y="130" width="10" height="100" as="geometry" />
        </mxCell>
        <mxCell id="Cu3xwsOy7MKMYsh_eWxb-8" value="" style="rounded=0;whiteSpace=wrap;html=1;" parent="1" vertex="1">
          <mxGeometry x="653" y="178" width="10" height="60" as="geometry" />
        </mxCell>
        <mxCell id="Cu3xwsOy7MKMYsh_eWxb-9" value="" style="endArrow=classic;html=1;rounded=0;entryX=0.008;entryY=0.333;entryDx=0;entryDy=0;entryPerimeter=0;spacing=2;" parent="1" edge="1">
          <mxGeometry width="50" height="50" relative="1" as="geometry">
            <mxPoint x="275" y="139" as="sourcePoint" />
            <mxPoint x="445.27999999999975" y="138.9899999999999" as="targetPoint" />
          </mxGeometry>
        </mxCell>
        <mxCell id="Cu3xwsOy7MKMYsh_eWxb-10" value="&lt;font&gt;reqCF(List&amp;lt;selections&amp;gt;)&lt;/font&gt;" style="text;html=1;align=center;verticalAlign=middle;whiteSpace=wrap;rounded=0;fontSize=10;rotation=0;" parent="1" vertex="1">
          <mxGeometry x="284" y="113" width="160" height="30" as="geometry" />
        </mxCell>
        <mxCell id="Cu3xwsOy7MKMYsh_eWxb-11" value="" style="endArrow=classic;html=1;rounded=0;entryX=-0.05;entryY=0.161;entryDx=0;entryDy=0;entryPerimeter=0;" parent="1" target="Cu3xwsOy7MKMYsh_eWxb-8" edge="1">
          <mxGeometry width="50" height="50" relative="1" as="geometry">
            <mxPoint x="455" y="188" as="sourcePoint" />
            <mxPoint x="990" y="188" as="targetPoint" />
          </mxGeometry>
        </mxCell>
        <mxCell id="Cu3xwsOy7MKMYsh_eWxb-12" value="&lt;font size=&quot;1&quot;&gt;read(r&lt;/font&gt;&lt;span style=&quot;font-size: 10px;&quot;&gt;equest&lt;/span&gt;&lt;font size=&quot;1&quot;&gt;)&lt;/font&gt;" style="text;html=1;align=center;verticalAlign=middle;whiteSpace=wrap;rounded=0;" parent="1" vertex="1">
          <mxGeometry x="473" y="165" width="180" height="30" as="geometry" />
        </mxCell>
        <mxCell id="Cu3xwsOy7MKMYsh_eWxb-13" value="" style="endArrow=classic;html=1;rounded=0;dashed=1;exitX=-0.016;exitY=0.572;exitDx=0;exitDy=0;exitPerimeter=0;" parent="1" source="Cu3xwsOy7MKMYsh_eWxb-8" edge="1">
          <mxGeometry width="50" height="50" relative="1" as="geometry">
            <mxPoint x="990" y="212" as="sourcePoint" />
            <mxPoint x="454.99741935483877" y="211.84000000000012" as="targetPoint" />
          </mxGeometry>
        </mxCell>
        <mxCell id="Cu3xwsOy7MKMYsh_eWxb-14" value="&lt;font size=&quot;1&quot;&gt;cashFlowData&lt;/font&gt;" style="text;html=1;align=center;verticalAlign=middle;whiteSpace=wrap;rounded=0;" parent="1" vertex="1">
          <mxGeometry x="520" y="188" width="160" height="30" as="geometry" />
        </mxCell>
        <mxCell id="Cu3xwsOy7MKMYsh_eWxb-15" value="" style="endArrow=classic;html=1;rounded=0;dashed=1;exitX=-0.018;exitY=0.77;exitDx=0;exitDy=0;exitPerimeter=0;" parent="1" edge="1">
          <mxGeometry width="50" height="50" relative="1" as="geometry">
            <mxPoint x="444.81999999999994" y="225.29999999999995" as="sourcePoint" />
            <mxPoint x="275" y="226" as="targetPoint" />
          </mxGeometry>
        </mxCell>
        <mxCell id="Cu3xwsOy7MKMYsh_eWxb-16" value="&lt;font style=&quot;font-size: 10px;&quot;&gt;cashFlowData&lt;/font&gt;" style="text;html=1;align=center;verticalAlign=middle;whiteSpace=wrap;rounded=0;" parent="1" vertex="1">
          <mxGeometry x="283" y="214" width="165" height="5" as="geometry" />
        </mxCell>
        <mxCell id="Cu3xwsOy7MKMYsh_eWxb-22" value="&lt;font style=&quot;font-size: 11px;&quot;&gt;:TreasuryAnalyst&lt;/font&gt;" style="shape=umlActor;verticalLabelPosition=bottom;verticalAlign=top;html=1;outlineConnect=0;" parent="1" vertex="1">
          <mxGeometry x="72" width="30" height="60" as="geometry" />
        </mxCell>
        <mxCell id="Cu3xwsOy7MKMYsh_eWxb-23" value="" style="endArrow=none;dashed=1;html=1;rounded=0;" parent="1" source="Cu3xwsOy7MKMYsh_eWxb-56" edge="1">
          <mxGeometry width="50" height="50" relative="1" as="geometry">
            <mxPoint x="89" y="840" as="sourcePoint" />
            <mxPoint x="89" y="80" as="targetPoint" />
          </mxGeometry>
        </mxCell>
        <mxCell id="Cu3xwsOy7MKMYsh_eWxb-25" value="" style="endArrow=classic;html=1;rounded=0;" parent="1" edge="1">
          <mxGeometry width="50" height="50" relative="1" as="geometry">
            <mxPoint x="274.5504347826086" y="261" as="sourcePoint" />
            <mxPoint x="274.5504347826086" y="281" as="targetPoint" />
            <Array as="points">
              <mxPoint x="324.9200000000001" y="261" />
              <mxPoint x="324.9200000000001" y="281" />
            </Array>
          </mxGeometry>
        </mxCell>
        <mxCell id="Cu3xwsOy7MKMYsh_eWxb-26" value="parseCFData&amp;nbsp;&lt;div&gt;(parsedData)&lt;/div&gt;" style="text;html=1;align=center;verticalAlign=middle;whiteSpace=wrap;rounded=0;fontSize=10;" parent="1" vertex="1">
          <mxGeometry x="295" y="247" width="150" height="30" as="geometry" />
        </mxCell>
        <mxCell id="Cu3xwsOy7MKMYsh_eWxb-42" value="&lt;font style=&quot;font-size: 10px;&quot;&gt;repSysGateway: ReportSysGateway&amp;nbsp;&lt;/font&gt;" style="shape=umlLifeline;perimeter=lifelinePerimeter;whiteSpace=wrap;html=1;container=0;dropTarget=0;collapsible=0;recursiveResize=0;outlineConnect=0;portConstraint=eastwest;newEdgeStyle={&quot;edgeStyle&quot;:&quot;elbowEdgeStyle&quot;,&quot;elbow&quot;:&quot;vertical&quot;,&quot;curved&quot;:0,&quot;rounded&quot;:0};" parent="1" vertex="1">
          <mxGeometry x="788" y="40" width="100" height="790" as="geometry" />
        </mxCell>
        <mxCell id="Cu3xwsOy7MKMYsh_eWxb-43" value="&lt;font style=&quot;font-size: 10px;&quot;&gt;&amp;lt;&amp;lt;external&amp;gt;&amp;gt;&lt;/font&gt;&lt;div&gt;&lt;font style=&quot;font-size: 10px;&quot;&gt;Reporting System&lt;/font&gt;&lt;/div&gt;" style="shape=umlLifeline;perimeter=lifelinePerimeter;whiteSpace=wrap;html=1;container=0;dropTarget=0;collapsible=0;recursiveResize=0;outlineConnect=0;portConstraint=eastwest;newEdgeStyle={&quot;edgeStyle&quot;:&quot;elbowEdgeStyle&quot;,&quot;elbow&quot;:&quot;vertical&quot;,&quot;curved&quot;:0,&quot;rounded&quot;:0};" parent="1" vertex="1">
          <mxGeometry x="974" y="40" width="100" height="790" as="geometry" />
        </mxCell>
        <mxCell id="Cu3xwsOy7MKMYsh_eWxb-44" value="" style="rounded=0;whiteSpace=wrap;html=1;" parent="1" vertex="1">
          <mxGeometry x="1019" y="370" width="10" height="46" as="geometry" />
        </mxCell>
        <mxCell id="Cu3xwsOy7MKMYsh_eWxb-45" value="" style="endArrow=classic;html=1;rounded=0;entryX=-0.207;entryY=0.129;entryDx=0;entryDy=0;entryPerimeter=0;" parent="1" source="Cu3xwsOy7MKMYsh_eWxb-1" target="Cu3xwsOy7MKMYsh_eWxb-59" edge="1">
          <mxGeometry width="50" height="50" relative="1" as="geometry">
            <mxPoint x="280" y="310" as="sourcePoint" />
            <mxPoint x="1020" y="310" as="targetPoint" />
          </mxGeometry>
        </mxCell>
        <mxCell id="Cu3xwsOy7MKMYsh_eWxb-46" value="generateTreasReport(parsedData)" style="edgeLabel;html=1;align=center;verticalAlign=middle;resizable=0;points=[];" parent="Cu3xwsOy7MKMYsh_eWxb-45" vertex="1" connectable="0">
          <mxGeometry x="-0.4793" y="2" relative="1" as="geometry">
            <mxPoint x="84" y="-7" as="offset" />
          </mxGeometry>
        </mxCell>
        <mxCell id="Cu3xwsOy7MKMYsh_eWxb-47" value="" style="endArrow=classic;html=1;rounded=0;" parent="1" edge="1">
          <mxGeometry width="50" height="50" relative="1" as="geometry">
            <mxPoint x="844.0799999999999" y="380.48" as="sourcePoint" />
            <mxPoint x="1019" y="380" as="targetPoint" />
          </mxGeometry>
        </mxCell>
        <mxCell id="Cu3xwsOy7MKMYsh_eWxb-48" value="generateTreasReport(data)" style="edgeLabel;html=1;align=center;verticalAlign=middle;resizable=0;points=[];" parent="Cu3xwsOy7MKMYsh_eWxb-47" vertex="1" connectable="0">
          <mxGeometry x="-0.4793" y="2" relative="1" as="geometry">
            <mxPoint x="44" y="-9" as="offset" />
          </mxGeometry>
        </mxCell>
        <mxCell id="Cu3xwsOy7MKMYsh_eWxb-51" value="" style="endArrow=classic;html=1;rounded=0;dashed=1;exitX=0;exitY=0.891;exitDx=0;exitDy=0;exitPerimeter=0;" parent="1" source="Cu3xwsOy7MKMYsh_eWxb-59" edge="1">
          <mxGeometry width="50" height="50" relative="1" as="geometry">
            <mxPoint x="1176.55" y="423" as="sourcePoint" />
            <mxPoint x="274.55" y="424.99" as="targetPoint" />
          </mxGeometry>
        </mxCell>
        <mxCell id="Cu3xwsOy7MKMYsh_eWxb-52" value="report" style="edgeLabel;html=1;align=center;verticalAlign=middle;resizable=0;points=[];" parent="Cu3xwsOy7MKMYsh_eWxb-51" vertex="1" connectable="0">
          <mxGeometry x="0.0809" y="1" relative="1" as="geometry">
            <mxPoint x="-9" y="-10" as="offset" />
          </mxGeometry>
        </mxCell>
        <mxCell id="Cu3xwsOy7MKMYsh_eWxb-55" value="" style="endArrow=none;dashed=1;html=1;rounded=0;entryX=0.4;entryY=0.912;entryDx=0;entryDy=0;entryPerimeter=0;" parent="1" edge="1">
          <mxGeometry width="50" height="50" relative="1" as="geometry">
            <mxPoint x="86" y="824" as="sourcePoint" />
            <mxPoint x="86" y="736.7559999999999" as="targetPoint" />
          </mxGeometry>
        </mxCell>
        <mxCell id="Cu3xwsOy7MKMYsh_eWxb-56" value="" style="rounded=0;whiteSpace=wrap;html=1;" parent="1" vertex="1">
          <mxGeometry x="82" y="109.5" width="10" height="650.5" as="geometry" />
        </mxCell>
        <mxCell id="Cu3xwsOy7MKMYsh_eWxb-57" value="" style="endArrow=classic;html=1;rounded=0;" parent="1" edge="1">
          <mxGeometry width="50" height="50" relative="1" as="geometry">
            <mxPoint x="455.0004347826086" y="149" as="sourcePoint" />
            <mxPoint x="455.0004347826086" y="169" as="targetPoint" />
            <Array as="points">
              <mxPoint x="505.37000000000006" y="149" />
              <mxPoint x="505.37000000000006" y="169" />
            </Array>
          </mxGeometry>
        </mxCell>
        <mxCell id="Cu3xwsOy7MKMYsh_eWxb-58" value="frmtCFReq&lt;div&gt;(List&amp;lt;selections&amp;gt;)&lt;/div&gt;" style="text;html=1;align=center;verticalAlign=middle;whiteSpace=wrap;rounded=0;fontSize=10;" parent="1" vertex="1">
          <mxGeometry x="479" y="131" width="150" height="30" as="geometry" />
        </mxCell>
        <mxCell id="Cu3xwsOy7MKMYsh_eWxb-59" value="" style="rounded=0;whiteSpace=wrap;html=1;" parent="1" vertex="1">
          <mxGeometry x="833" y="290" width="10" height="152" as="geometry" />
        </mxCell>
        <mxCell id="Cu3xwsOy7MKMYsh_eWxb-60" value="" style="endArrow=classic;html=1;rounded=0;" parent="1" edge="1">
          <mxGeometry width="50" height="50" relative="1" as="geometry">
            <mxPoint x="843.0004347826086" y="323" as="sourcePoint" />
            <mxPoint x="843.0004347826086" y="343" as="targetPoint" />
            <Array as="points">
              <mxPoint x="893.3700000000001" y="323" />
              <mxPoint x="893.3700000000001" y="343" />
            </Array>
          </mxGeometry>
        </mxCell>
        <mxCell id="Cu3xwsOy7MKMYsh_eWxb-61" value="formattTreasReq(parsedData)" style="text;html=1;align=center;verticalAlign=middle;whiteSpace=wrap;rounded=0;fontSize=11;" parent="1" vertex="1">
          <mxGeometry x="858" y="300" width="150" height="30" as="geometry" />
        </mxCell>
        <mxCell id="xcc4m-nTGiS61hwxTPcM-1" value="" style="endArrow=classic;html=1;rounded=0;dashed=1;exitX=-0.018;exitY=0.77;exitDx=0;exitDy=0;exitPerimeter=0;" parent="1" edge="1">
          <mxGeometry width="50" height="50" relative="1" as="geometry">
            <mxPoint x="1018" y="410" as="sourcePoint" />
            <mxPoint x="843" y="411" as="targetPoint" />
          </mxGeometry>
        </mxCell>
        <mxCell id="xcc4m-nTGiS61hwxTPcM-2" value="report" style="edgeLabel;html=1;align=center;verticalAlign=middle;resizable=0;points=[];" parent="xcc4m-nTGiS61hwxTPcM-1" vertex="1" connectable="0">
          <mxGeometry x="-0.0288" y="-4" relative="1" as="geometry">
            <mxPoint y="-5" as="offset" />
          </mxGeometry>
        </mxCell>
        <mxCell id="xcc4m-nTGiS61hwxTPcM-3" value="" style="endArrow=classic;html=1;rounded=0;dashed=1;" parent="1" source="Cu3xwsOy7MKMYsh_eWxb-1" edge="1">
          <mxGeometry width="50" height="50" relative="1" as="geometry">
            <mxPoint x="260" y="463" as="sourcePoint" />
            <mxPoint x="92" y="462.66" as="targetPoint" />
          </mxGeometry>
        </mxCell>
        <mxCell id="xcc4m-nTGiS61hwxTPcM-4" value="report" style="edgeLabel;html=1;align=center;verticalAlign=middle;resizable=0;points=[];" parent="xcc4m-nTGiS61hwxTPcM-3" vertex="1" connectable="0">
          <mxGeometry x="0.0809" y="1" relative="1" as="geometry">
            <mxPoint x="7" y="-12" as="offset" />
          </mxGeometry>
        </mxCell>
        <mxCell id="Cu3xwsOy7MKMYsh_eWxb-5" value="" style="rounded=0;whiteSpace=wrap;html=1;" parent="1" vertex="1">
          <mxGeometry x="265" y="116" width="9.55" height="364" as="geometry" />
        </mxCell>
        <mxCell id="xcc4m-nTGiS61hwxTPcM-8" value="" style="rounded=0;whiteSpace=wrap;html=1;" parent="1" vertex="1">
          <mxGeometry x="265" y="530" width="10" height="210" as="geometry" />
        </mxCell>
        <mxCell id="xcc4m-nTGiS61hwxTPcM-9" value="transmitToBank()" style="text;html=1;align=center;verticalAlign=middle;whiteSpace=wrap;rounded=0;fontSize=10;" parent="1" vertex="1">
          <mxGeometry x="100" y="510" width="160" height="30" as="geometry" />
        </mxCell>
        <mxCell id="xcc4m-nTGiS61hwxTPcM-10" value="" style="endArrow=classic;html=1;rounded=0;entryX=0.008;entryY=0.333;entryDx=0;entryDy=0;entryPerimeter=0;spacing=2;" parent="1" edge="1">
          <mxGeometry width="50" height="50" relative="1" as="geometry">
            <mxPoint x="94.86000000000001" y="540.01" as="sourcePoint" />
            <mxPoint x="265.13999999999976" y="539.9999999999999" as="targetPoint" />
          </mxGeometry>
        </mxCell>
        <mxCell id="xcc4m-nTGiS61hwxTPcM-11" value="&lt;font style=&quot;font-size: 10px;&quot;&gt;bankGateway:&lt;br&gt;BankSoftwareGateway&lt;/font&gt;" style="shape=umlLifeline;perimeter=lifelinePerimeter;whiteSpace=wrap;html=1;container=0;dropTarget=0;collapsible=0;recursiveResize=0;outlineConnect=0;portConstraint=eastwest;newEdgeStyle={&quot;edgeStyle&quot;:&quot;elbowEdgeStyle&quot;,&quot;elbow&quot;:&quot;vertical&quot;,&quot;curved&quot;:0,&quot;rounded&quot;:0};" parent="1" vertex="1">
          <mxGeometry x="1136" y="40" width="106" height="790" as="geometry" />
        </mxCell>
        <mxCell id="xcc4m-nTGiS61hwxTPcM-12" value="&lt;font style=&quot;font-size: 10px;&quot;&gt;&amp;lt;&amp;lt;external&amp;gt;&amp;gt;&lt;/font&gt;&lt;div&gt;&lt;font style=&quot;font-size: 10px;&quot;&gt;Banking Software&lt;/font&gt;&lt;/div&gt;" style="shape=umlLifeline;perimeter=lifelinePerimeter;whiteSpace=wrap;html=1;container=0;dropTarget=0;collapsible=0;recursiveResize=0;outlineConnect=0;portConstraint=eastwest;newEdgeStyle={&quot;edgeStyle&quot;:&quot;elbowEdgeStyle&quot;,&quot;elbow&quot;:&quot;vertical&quot;,&quot;curved&quot;:0,&quot;rounded&quot;:0};" parent="1" vertex="1">
          <mxGeometry x="1325" y="40" width="100" height="790" as="geometry" />
        </mxCell>
        <mxCell id="xcc4m-nTGiS61hwxTPcM-25" value="" style="endArrow=classic;html=1;rounded=0;" parent="1" edge="1">
          <mxGeometry width="50" height="50" relative="1" as="geometry">
            <mxPoint x="274.5504347826086" y="554" as="sourcePoint" />
            <mxPoint x="274.5504347826086" y="574" as="targetPoint" />
            <Array as="points">
              <mxPoint x="324.9200000000001" y="554" />
              <mxPoint x="324.9200000000001" y="574" />
            </Array>
          </mxGeometry>
        </mxCell>
        <mxCell id="xcc4m-nTGiS61hwxTPcM-26" value="transformCFData&amp;nbsp;&lt;div&gt;(&lt;span style=&quot;text-align: left;&quot;&gt;formattedReportData&lt;/span&gt;)&lt;/div&gt;" style="text;html=1;align=center;verticalAlign=middle;whiteSpace=wrap;rounded=0;fontSize=10;" parent="1" vertex="1">
          <mxGeometry x="305" y="540" width="150" height="30" as="geometry" />
        </mxCell>
        <mxCell id="xcc4m-nTGiS61hwxTPcM-27" value="" style="rounded=0;whiteSpace=wrap;html=1;" parent="1" vertex="1">
          <mxGeometry x="1184" y="590" width="10" height="110" as="geometry" />
        </mxCell>
        <mxCell id="xcc4m-nTGiS61hwxTPcM-28" value="" style="endArrow=classic;html=1;rounded=0;entryX=-0.005;entryY=0.134;entryDx=0;entryDy=0;entryPerimeter=0;" parent="1" target="xcc4m-nTGiS61hwxTPcM-27" edge="1">
          <mxGeometry width="50" height="50" relative="1" as="geometry">
            <mxPoint x="275" y="604.5799999999999" as="sourcePoint" />
            <mxPoint x="1370" y="605" as="targetPoint" />
          </mxGeometry>
        </mxCell>
        <mxCell id="xcc4m-nTGiS61hwxTPcM-29" value="transmitBankingData(data)" style="edgeLabel;html=1;align=center;verticalAlign=middle;resizable=0;points=[];" parent="xcc4m-nTGiS61hwxTPcM-28" vertex="1" connectable="0">
          <mxGeometry x="-0.4793" y="2" relative="1" as="geometry">
            <mxPoint x="168" y="-12" as="offset" />
          </mxGeometry>
        </mxCell>
        <mxCell id="xcc4m-nTGiS61hwxTPcM-30" value="" style="endArrow=classic;html=1;rounded=0;" parent="1" edge="1">
          <mxGeometry width="50" height="50" relative="1" as="geometry">
            <mxPoint x="1194.0004347826086" y="614" as="sourcePoint" />
            <mxPoint x="1194.0004347826086" y="634" as="targetPoint" />
            <Array as="points">
              <mxPoint x="1244.3700000000001" y="614" />
              <mxPoint x="1244.3700000000001" y="634" />
            </Array>
          </mxGeometry>
        </mxCell>
        <mxCell id="xcc4m-nTGiS61hwxTPcM-31" value="formatTransmission(data)" style="text;html=1;align=center;verticalAlign=middle;whiteSpace=wrap;rounded=0;fontSize=10;" parent="1" vertex="1">
          <mxGeometry x="1214.45" y="590" width="150" height="30" as="geometry" />
        </mxCell>
        <mxCell id="xcc4m-nTGiS61hwxTPcM-32" value="" style="rounded=0;whiteSpace=wrap;html=1;" parent="1" vertex="1">
          <mxGeometry x="1370" y="640" width="10" height="40" as="geometry" />
        </mxCell>
        <mxCell id="xcc4m-nTGiS61hwxTPcM-34" value="" style="endArrow=classic;html=1;rounded=0;" parent="1" edge="1">
          <mxGeometry width="50" height="50" relative="1" as="geometry">
            <mxPoint x="1195.08" y="654.06" as="sourcePoint" />
            <mxPoint x="1370" y="653.5799999999999" as="targetPoint" />
          </mxGeometry>
        </mxCell>
        <mxCell id="xcc4m-nTGiS61hwxTPcM-35" value="send(&lt;span style=&quot;text-align: left; text-wrap-mode: wrap; background-color: rgb(251, 251, 251);&quot;&gt;formattedTransmission&lt;/span&gt;)" style="edgeLabel;html=1;align=center;verticalAlign=middle;resizable=0;points=[];" parent="xcc4m-nTGiS61hwxTPcM-34" vertex="1" connectable="0">
          <mxGeometry x="-0.4793" y="2" relative="1" as="geometry">
            <mxPoint x="44" y="-9" as="offset" />
          </mxGeometry>
        </mxCell>
        <mxCell id="xcc4m-nTGiS61hwxTPcM-36" value="" style="endArrow=classic;html=1;rounded=0;dashed=1;exitX=-0.018;exitY=0.77;exitDx=0;exitDy=0;exitPerimeter=0;" parent="1" edge="1">
          <mxGeometry width="50" height="50" relative="1" as="geometry">
            <mxPoint x="1370" y="670" as="sourcePoint" />
            <mxPoint x="1195" y="671" as="targetPoint" />
          </mxGeometry>
        </mxCell>
        <mxCell id="xcc4m-nTGiS61hwxTPcM-37" value="confirmation" style="edgeLabel;html=1;align=center;verticalAlign=middle;resizable=0;points=[];" parent="xcc4m-nTGiS61hwxTPcM-36" vertex="1" connectable="0">
          <mxGeometry x="-0.0288" y="-4" relative="1" as="geometry">
            <mxPoint y="-5" as="offset" />
          </mxGeometry>
        </mxCell>
        <mxCell id="xcc4m-nTGiS61hwxTPcM-39" value="" style="endArrow=classic;html=1;rounded=0;dashed=1;entryX=1.036;entryY=0.761;entryDx=0;entryDy=0;entryPerimeter=0;exitX=-0.012;exitY=0.908;exitDx=0;exitDy=0;exitPerimeter=0;" parent="1" target="xcc4m-nTGiS61hwxTPcM-8" edge="1" source="xcc4m-nTGiS61hwxTPcM-27">
          <mxGeometry width="50" height="50" relative="1" as="geometry">
            <mxPoint x="1180" y="690" as="sourcePoint" />
            <mxPoint x="280" y="690" as="targetPoint" />
          </mxGeometry>
        </mxCell>
        <mxCell id="xcc4m-nTGiS61hwxTPcM-40" value="confirmation" style="edgeLabel;html=1;align=center;verticalAlign=middle;resizable=0;points=[];" parent="xcc4m-nTGiS61hwxTPcM-39" vertex="1" connectable="0">
          <mxGeometry x="-0.0288" y="-4" relative="1" as="geometry">
            <mxPoint x="-191" y="-5" as="offset" />
          </mxGeometry>
        </mxCell>
        <mxCell id="xcc4m-nTGiS61hwxTPcM-41" value="" style="endArrow=classic;html=1;rounded=0;dashed=1;entryX=1.076;entryY=0.938;entryDx=0;entryDy=0;entryPerimeter=0;" parent="1" target="Cu3xwsOy7MKMYsh_eWxb-56" edge="1">
          <mxGeometry width="50" height="50" relative="1" as="geometry">
            <mxPoint x="265" y="720.34" as="sourcePoint" />
            <mxPoint x="100" y="720" as="targetPoint" />
          </mxGeometry>
        </mxCell>
        <mxCell id="xcc4m-nTGiS61hwxTPcM-42" value="confirmation" style="edgeLabel;html=1;align=center;verticalAlign=middle;resizable=0;points=[];" parent="xcc4m-nTGiS61hwxTPcM-41" vertex="1" connectable="0">
          <mxGeometry x="0.0809" y="1" relative="1" as="geometry">
            <mxPoint x="7" y="-12" as="offset" />
          </mxGeometry>
        </mxCell>
      </root>
    </mxGraphModel>
  </diagram>
</mxfile>
